<svg width="32" height="32" viewBox="0 0 32 32" fill="none" xmlns="http://www.w3.org/2000/svg">
<path fill-rule="evenodd" clip-rule="evenodd" d="M4.95801 9.62682C4.93967 9.92813 4.92677 10.2431 4.92676 10.5721V21.4276C4.92676 23.1109 5.17046 24.4328 5.65918 25.3924C6.16745 26.3521 7.01846 27.0361 8.21094 27.4452C9.40334 27.8384 11.0452 28.035 13.1367 28.035H20.1748C22.4617 28.035 24.1231 27.7834 25.1592 27.2801C26.2147 26.761 26.8406 25.7857 27.0361 24.3544C27.2707 23.0329 28.1315 22.3719 29.6172 22.3719C30.4378 22.372 31.0632 22.5446 31.4932 22.8905C31.9232 23.2366 32.0802 23.7405 31.9629 24.4012C31.6501 27.044 30.5259 28.9711 28.5908 30.1825C26.6555 31.3938 23.8499 31.9998 20.1748 31.9999H13.1367C8.6602 31.9998 5.34661 31.1423 3.19629 29.4276C1.06548 27.6971 0 25.0302 0 21.4276V10.5721C8.38075e-06 10.2494 0.0115069 9.9344 0.0283203 9.62682H4.95801ZM20.1748 0.000840447C23.8499 0.000855227 26.6555 0.614577 28.5908 1.84166C30.5259 3.05304 31.6501 4.9724 31.9629 7.59947C32.0801 8.2601 31.9232 8.76318 31.4932 9.10924C31.0632 9.45526 30.438 9.62871 29.6172 9.62877C28.1315 9.62877 27.2707 8.96784 27.0361 7.64635C26.8406 6.19907 26.2148 5.22398 25.1592 4.72057C24.1231 4.21724 22.4618 3.96472 20.1748 3.96471H14.9004V3.95592L1.88379 3.90025C2.2638 3.39825 2.70127 2.94808 3.19629 2.54967C5.32707 0.819183 8.62113 -0.0305833 13.0781 0.000840447H20.1748Z" fill="url(#paint0_linear_52_4762)"/>
<defs>
<linearGradient id="paint0_linear_52_4762" x1="16.0003" y1="0" x2="16.0003" y2="31.9999" gradientUnits="userSpaceOnUse">
<stop stop-color="#DE7B54"/>
<stop offset="1" stop-color="#382928"/>
</linearGradient>
</defs>
</svg>
