<svg width="30" height="30" viewBox="0 0 30 30" fill="none" xmlns="http://www.w3.org/2000/svg">
<path fill-rule="evenodd" clip-rule="evenodd" d="M4.54395 8.82401C4.52711 9.10041 4.51563 9.38934 4.51562 9.6912V19.6414C4.51562 21.1844 4.73951 22.3965 5.1875 23.2762C5.65338 24.1555 6.43262 24.7831 7.52539 25.158C8.61847 25.5185 10.1246 25.698 12.042 25.698H18.4922C20.5884 25.698 22.1118 25.4679 23.0615 25.0066C24.0292 24.5307 24.603 23.6363 24.7822 22.324C24.9973 21.1127 25.7857 20.5067 27.1475 20.5066C27.9001 20.5066 28.4739 20.6659 28.8682 20.9832C29.2621 21.3004 29.4053 21.7616 29.2979 22.367C29.0112 24.7896 27.9809 26.5564 26.207 27.6668C24.433 28.7772 21.861 29.3328 18.4922 29.3328H12.042C7.93845 29.3328 4.90082 28.5463 2.92969 26.9744C0.976493 25.3881 0 22.9437 0 19.6414V9.6912C4.28828e-06 9.39514 0.00995815 9.10617 0.0253906 8.82401H4.54395ZM18.4922 0.000769178C21.861 0.000769178 24.433 0.563455 26.207 1.68827C27.9808 2.79862 29.0111 4.55765 29.2979 6.96561C29.4054 7.57121 29.2623 8.03313 28.8682 8.35038C28.4739 8.66763 27.9001 8.82596 27.1475 8.82596C25.7858 8.82592 24.9973 8.22062 24.7822 7.00956C24.603 5.68285 24.0292 4.7884 23.0615 4.32694C22.1118 3.8656 20.5885 3.63456 18.4922 3.63456H13.6582V3.62577L1.72656 3.57499C2.07491 3.11486 2.47592 2.70188 2.92969 2.33671C4.88283 0.750592 7.90205 -0.0280062 11.9873 0.000769178H18.4922Z" fill="white"/>
</svg>
