<svg width="146" height="16" viewBox="0 0 146 16" fill="none" xmlns="http://www.w3.org/2000/svg">
<mask id="mask0_416_2313" style="mask-type:alpha" maskUnits="userSpaceOnUse" x="0" y="-1" width="145" height="17">
<path d="M2.46484 5.28711V10.7139C2.46484 11.5555 2.58657 12.2175 2.83105 12.6973C3.08534 13.1768 3.51199 13.5182 4.1084 13.7227C4.70486 13.9191 5.52624 14.0176 6.57227 14.0176H10.0928C11.2365 14.0176 12.0676 13.8921 12.5859 13.6406C13.1139 13.3811 13.4276 12.8933 13.5254 12.1777C13.6428 11.5172 14.0733 11.1866 14.8164 11.1865C15.2269 11.1865 15.5408 11.2732 15.7559 11.4463C15.9705 11.6192 16.0488 11.8712 15.9902 12.2012C15.8337 13.5224 15.2708 14.4862 14.3027 15.0918C13.3346 15.6974 11.9311 16 10.0928 16H6.57227C4.33309 15.9999 2.67531 15.5711 1.59961 14.7139C0.533778 13.8487 0 12.515 0 10.7139V5.28711C9.60618e-06 5.13774 0.00548146 4.99151 0.0126953 4.84863H2.47754C2.4697 4.98882 2.46485 5.13508 2.46484 5.28711ZM36.376 0.000976562C38.5363 0.00101246 40.1284 0.430001 41.1523 1.28711C42.1763 2.14447 42.6885 3.47802 42.6885 5.28711V10.7139C42.6885 12.515 42.1763 13.8487 41.1523 14.7139C40.1284 15.5711 38.5364 16 36.376 16H32.9941C30.8429 16 29.2502 15.5712 28.2168 14.7139C27.1928 13.8487 26.6807 12.515 26.6807 10.7139V5.26367C26.6807 3.44679 27.1971 2.11317 28.2305 1.26367C29.2639 0.406322 30.8522 -0.0147545 32.9941 0.000976562H36.376ZM55.7119 4.36621C55.7119 5.29425 55.908 5.93128 56.2998 6.27734C56.6918 6.62327 57.4472 6.79688 58.5664 6.79688H62.0371C63.8748 6.7969 65.2411 7.17474 66.1367 7.92969C67.0416 8.68468 67.4941 9.84818 67.4941 11.4209C67.4941 12.9859 67.0468 14.1424 66.1514 14.8896C65.2557 15.6289 63.8841 15.999 62.0371 15.999H58.877C57.2817 15.999 56.0352 15.7273 55.1396 15.1846C54.2538 14.6418 53.6995 13.8041 53.4756 12.6719C53.4384 12.326 53.5217 12.0666 53.7266 11.8936C53.9317 11.7207 54.2305 11.6339 54.6221 11.6338C55.0139 11.6338 55.2993 11.7128 55.4766 11.8701C55.6629 12.0274 55.7883 12.2715 55.8535 12.6016C55.9935 13.1438 56.2922 13.5182 56.749 13.7227C57.2154 13.9192 57.9255 14.0176 58.877 14.0176H62.0371C63.2405 14.0176 64.0572 13.8355 64.4863 13.4736C64.9245 13.1039 65.1436 12.4195 65.1436 11.4209C65.1434 10.4067 64.9203 9.71439 64.4727 9.34473C64.0248 8.96717 63.2125 8.77932 62.0371 8.7793H58.5664C56.8032 8.7793 55.4921 8.41693 54.6338 7.69336C53.7849 6.9619 53.3604 5.85264 53.3604 4.36621C53.3604 4.33859 53.362 4.31056 53.3623 4.2832H55.7129C55.7125 4.31043 55.7119 4.33845 55.7119 4.36621ZM113.748 -0.000976562C115.908 -0.000976562 117.502 0.427804 118.525 1.28516C119.55 2.14252 120.061 3.4762 120.061 5.28516V10.7119C120.061 12.513 119.55 13.8467 118.525 14.7119C117.502 15.5693 115.908 15.998 113.748 15.998H110.366C108.215 15.998 106.623 15.5691 105.59 14.7119C104.565 13.8467 104.053 12.5131 104.053 10.7119V5.26172C104.053 3.44488 104.569 2.11122 105.603 1.26172C106.636 0.404369 108.225 -0.0167076 110.366 -0.000976562H113.748ZM92.501 -0.00195312C93.0876 -0.00177098 93.3808 0.328804 93.3809 0.989258V15.0068C93.3807 15.6672 93.0185 15.9971 92.293 15.9971C91.5676 15.997 91.2062 15.6671 91.2061 15.0068V4.08691L86.4385 10.4756C86.119 10.9004 85.6785 11.1123 85.1172 11.1123C84.7286 11.1123 84.3742 10.9004 84.0547 10.4756L77.4736 1.55664C77.4736 1.55664 77.0707 0.662982 77.877 0.217773C78.6836 -0.227377 79.3662 0.413086 79.3662 0.413086L85.2754 8.72461L91.1787 0.635742C91.4731 0.210986 91.914 -0.00195312 92.501 -0.00195312ZM133.084 4.36426C133.084 5.29221 133.281 5.92935 133.672 6.27539C134.064 6.62132 134.819 6.79391 135.938 6.79395H139.409C141.247 6.79396 142.614 7.17192 143.51 7.92676C144.414 8.68178 144.867 9.84612 144.867 11.4189C144.867 12.9838 144.42 14.1404 143.524 14.8877C142.629 15.627 141.256 15.9971 139.409 15.9971H136.25C134.655 15.9971 133.408 15.7253 132.512 15.1826C131.626 14.6399 131.072 13.8022 130.848 12.6699C130.81 12.324 130.894 12.0647 131.1 11.8916C131.304 11.7187 131.603 11.6319 131.994 11.6318C132.386 11.6318 132.672 11.7108 132.849 11.8682C133.035 12.0255 133.162 12.2694 133.227 12.5996C133.367 13.142 133.665 13.5153 134.122 13.7197C134.589 13.9163 135.298 14.0156 136.25 14.0156H139.409C140.613 14.0156 141.43 13.8335 141.858 13.4717C142.297 13.102 142.516 12.4177 142.516 11.4189C142.516 10.4046 142.292 9.71243 141.845 9.34277C141.396 8.9653 140.585 8.77736 139.409 8.77734H135.938C134.175 8.7773 132.864 8.41496 132.006 7.69141C131.157 6.95997 130.732 5.8506 130.732 4.36426C130.732 4.33663 130.734 4.30861 130.734 4.28125H133.086C133.086 4.30848 133.084 4.3365 133.084 4.36426ZM32.9941 1.9834C31.9984 1.97553 31.2137 2.07001 30.6406 2.2666C30.0675 2.46325 29.6583 2.80144 29.4141 3.28125C29.1698 3.76103 29.0479 4.42214 29.0479 5.26367V10.7139C29.0479 11.5554 29.1655 12.2165 29.4004 12.6963C29.6446 13.176 30.0531 13.5181 30.626 13.7227C31.199 13.9194 31.9889 14.0176 32.9941 14.0176H36.376C37.3811 14.0176 38.1701 13.9193 38.7432 13.7227C39.3162 13.5181 39.7202 13.1761 39.9551 12.6963C40.1993 12.2165 40.3213 11.5554 40.3213 10.7139V5.28711C40.3213 4.45335 40.1993 3.79621 39.9551 3.31641C39.7202 2.83669 39.3162 2.49452 38.7432 2.29004C38.1701 2.08556 37.3811 1.98342 36.376 1.9834H32.9941ZM110.366 1.98145C109.37 1.97358 108.585 2.06801 108.013 2.26465C107.44 2.46131 107.031 2.79956 106.786 3.2793C106.543 3.75907 106.42 4.42026 106.42 5.26172V10.7119C106.42 11.5535 106.538 12.2145 106.773 12.6943C107.017 13.1741 107.426 13.5162 107.999 13.7207C108.572 13.9173 109.361 14.0156 110.366 14.0156H113.748C114.753 14.0156 115.543 13.9174 116.116 13.7207C116.689 13.5162 117.093 13.174 117.328 12.6943C117.572 12.2145 117.693 11.5534 117.693 10.7119V5.28516C117.693 4.45142 117.572 3.79426 117.328 3.31445C117.093 2.83477 116.689 2.49261 116.116 2.28809C115.543 2.08358 114.753 1.98145 113.748 1.98145H110.366ZM10.0928 0.000976562C11.9312 0.000982409 13.3346 0.308425 14.3027 0.921875C15.2709 1.5275 15.8337 2.48732 15.9902 3.80078C16.0487 4.13073 15.9705 4.38267 15.7559 4.55566C15.5408 4.72865 15.2269 4.81538 14.8164 4.81543C14.0733 4.81535 13.6428 4.48468 13.5254 3.82422C13.4276 3.10077 13.114 2.61299 12.5859 2.36133C12.1123 2.13143 11.377 2.00709 10.3809 1.9873V1.97754L0.946289 1.94824C1.13574 1.69878 1.3532 1.47358 1.59961 1.27539C2.66553 0.410461 4.31372 -0.0147091 6.54297 0.000976562H10.0928ZM62.4785 0.000976562C63.9616 0.00102353 65.1234 0.256457 65.9629 0.767578C66.8118 1.27878 67.3483 2.06146 67.5723 3.11523C67.6282 3.45321 67.5536 3.71267 67.3486 3.89355C67.1435 4.06656 66.8352 4.15329 66.4248 4.15332C66.0521 4.15328 65.7725 4.07106 65.5859 3.90625C65.3994 3.74112 65.2777 3.50103 65.2217 3.18652C65.0726 2.72272 64.7876 2.40841 64.3682 2.24316C63.9484 2.07015 63.3179 1.98245 62.4785 1.98242H58.5381C58.353 1.98243 58.1775 1.98977 58.0127 1.99902H53.876C54.0697 1.64138 54.3172 1.33251 54.6201 1.07422C55.4691 0.358711 56.7753 0.00104213 58.5381 0.000976562H62.4785ZM139.851 -0.000976562C141.334 -0.00092747 142.496 0.254419 143.336 0.765625C144.185 1.27685 144.721 2.05967 144.945 3.11328C145.001 3.45127 144.926 3.71074 144.721 3.8916C144.515 4.06455 144.208 4.15137 143.797 4.15137C143.424 4.1513 143.144 4.06927 142.958 3.9043C142.771 3.73919 142.65 3.49899 142.594 3.18457C142.445 2.72079 142.16 2.40646 141.74 2.24121C141.321 2.0682 140.691 1.9805 139.851 1.98047H135.911C135.725 1.98047 135.55 1.98781 135.386 1.99707H131.248C131.441 1.63937 131.69 1.33059 131.992 1.07227C132.842 0.356668 134.148 -0.000961208 135.911 -0.000976562H139.851Z" fill="url(#paint0_linear_416_2313)"/>
</mask>
<g mask="url(#mask0_416_2313)">
<rect width="145.85" height="15.9991" fill="white"/>
</g>
<defs>
<linearGradient id="paint0_linear_416_2313" x1="8.00429" y1="-0.000217065" x2="8.00429" y2="15.9993" gradientUnits="userSpaceOnUse">
<stop stop-color="#CF7B5A"/>
<stop offset="1" stop-color="#382928"/>
</linearGradient>
</defs>
</svg>
