<svg width="182" height="20" viewBox="0 0 182 20" fill="none" xmlns="http://www.w3.org/2000/svg">
<mask id="mask0_43_308" style="mask-type:alpha" maskUnits="userSpaceOnUse" x="0" y="-1" width="181" height="22">
<path d="M3.0918 6.05982C3.082 6.23528 3.0752 6.41834 3.0752 6.60864V13.3918C3.0752 14.4439 3.22813 15.2706 3.5332 15.8704C3.85046 16.4699 4.38176 16.8969 5.12598 17.1526C5.87029 17.3982 6.89569 17.5217 8.20117 17.5217H12.5938C14.0213 17.5217 15.0593 17.3646 15.7061 17.0501C16.3647 16.7256 16.7548 16.1161 16.877 15.2219C17.0234 14.3962 17.561 13.9828 18.4883 13.9827C19.0005 13.9827 19.3918 14.0906 19.6602 14.3069C19.9284 14.5231 20.0263 14.8385 19.9531 15.2512C19.7578 16.9027 19.0547 18.1066 17.8467 18.8635C16.6386 19.6204 14.8877 20.0002 12.5938 20.0002H8.20117C5.40705 20.0001 3.33839 19.4633 1.99609 18.3918C0.666066 17.3103 0 15.6433 0 13.3918V6.60864C3.52622e-06 6.42167 0.00758424 6.23865 0.0166016 6.05982H3.0918ZM45.3906 0.00122261C48.0868 0.00122261 50.0738 0.537059 51.3516 1.60864C52.6293 2.68034 53.2686 4.34728 53.2686 6.60864V13.3928C53.2685 15.644 52.6292 17.3104 51.3516 18.3918C50.0738 19.4635 48.0867 19.9993 45.3906 19.9993H41.1709C38.4865 19.9993 36.4995 19.4635 35.21 18.3918C33.9323 17.3104 33.2931 15.644 33.293 13.3928V6.57837C33.293 4.30733 33.9381 2.64116 35.2275 1.57935C36.5171 0.507679 38.4982 -0.0184411 41.1709 0.00122261H45.3906ZM69.5186 5.45728C69.5186 6.61731 69.764 7.41338 70.2529 7.84595C70.742 8.27839 71.6844 8.49536 73.0811 8.49536H77.4121C79.7053 8.49541 81.4107 8.96771 82.5283 9.91138C83.6573 10.8551 84.2216 12.3099 84.2217 14.2756C84.2217 16.2317 83.664 17.6775 82.5469 18.6116C81.4293 19.5357 79.717 19.9983 77.4121 19.9983H73.4688C71.4782 19.9982 69.9232 19.6591 68.8057 18.9807C67.6999 18.3023 67.0079 17.2547 66.7285 15.8391C66.6822 15.4069 66.7863 15.0827 67.042 14.8665C67.2981 14.6502 67.6713 14.5422 68.1602 14.5422C68.649 14.5423 69.0045 14.6405 69.2256 14.8372C69.4581 15.0337 69.6148 15.3387 69.6963 15.7512C69.871 16.4292 70.2443 16.897 70.8145 17.1526C71.3965 17.3982 72.2817 17.5217 73.4688 17.5217H77.4121C78.9137 17.5217 79.9322 17.2943 80.4678 16.842C81.0149 16.38 81.2881 15.5242 81.2881 14.2756C81.2879 13.0078 81.0089 12.143 80.4502 11.6809C79.8913 11.2091 78.8787 10.9729 77.4121 10.9729H73.0811C70.8808 10.9729 69.2449 10.52 68.1738 9.61548C67.1147 8.70115 66.585 7.31512 66.585 5.45728C66.585 5.42275 66.5866 5.38796 66.5869 5.35376H69.5205C69.5201 5.38779 69.5186 5.42258 69.5186 5.45728ZM115.426 -0.00268364C116.158 -0.0025145 116.524 0.410835 116.524 1.23657V18.7571C116.524 19.5829 116.072 19.9963 115.167 19.9963C114.261 19.9963 113.81 19.5829 113.81 18.7571V5.10767L107.86 13.094C107.462 13.6248 106.912 13.8909 106.212 13.8909C105.727 13.8908 105.285 13.6249 104.887 13.094L96.6748 1.94458C96.6657 1.92419 96.1805 0.822029 97.1777 0.270754C98.1792 -0.282764 99.0267 0.50796 99.0352 0.515871L106.409 10.9055L113.776 0.794191C114.144 0.263246 114.693 -0.00268364 115.426 -0.00268364ZM141.939 -0.00170708C144.635 -0.0016572 146.622 0.534195 147.899 1.60571C149.178 2.67741 149.816 4.34435 149.816 6.60571V13.3899C149.816 15.6412 149.178 17.3074 147.899 18.3889C146.622 19.4606 144.635 19.9963 141.939 19.9963H137.719C135.034 19.9963 133.047 19.4606 131.758 18.3889C130.48 17.3074 129.841 15.641 129.841 13.3899V6.57642C129.841 4.30534 130.485 2.63829 131.774 1.57642C133.064 0.504731 135.046 -0.0213709 137.719 -0.00170708H141.939ZM166.066 5.45435C166.066 6.61451 166.312 7.4114 166.801 7.844C167.29 8.27621 168.232 8.49241 169.629 8.49243H173.959C176.253 8.49243 177.959 8.96482 179.076 9.90845C180.205 10.8523 180.77 12.3076 180.77 14.2737C180.769 16.2295 180.212 17.6746 179.095 18.6086C177.977 19.5328 176.264 19.9954 173.959 19.9954H170.018C168.027 19.9954 166.472 19.6562 165.354 18.9778C164.248 18.2994 163.555 17.2527 163.275 15.8372C163.229 15.4045 163.335 15.0798 163.591 14.8635C163.846 14.6474 164.219 14.5394 164.707 14.5393C165.196 14.5393 165.552 14.6377 165.772 14.8342C166.006 15.0309 166.163 15.3363 166.244 15.7493C166.419 16.4271 166.792 16.8941 167.362 17.1497C167.945 17.3953 168.83 17.5188 170.018 17.5188H173.959C175.462 17.5188 176.481 17.2914 177.016 16.8391C177.563 16.377 177.836 15.522 177.836 14.2737C177.836 13.0056 177.557 12.1401 176.999 11.678C176.44 11.206 175.426 10.9709 173.959 10.9709H169.629C167.428 10.9709 165.793 10.518 164.722 9.61353C163.663 8.69917 163.133 7.31248 163.133 5.45435C163.133 5.42 163.135 5.38583 163.135 5.35181H166.069C166.069 5.38567 166.066 5.41983 166.066 5.45435ZM41.1709 2.47876C39.9285 2.46893 38.9495 2.58655 38.2344 2.83228C37.5193 3.07808 37.0088 3.5011 36.7041 4.10083C36.3993 4.70051 36.2471 5.5265 36.2471 6.57837V13.3928C36.2471 14.4445 36.3935 15.2707 36.6865 15.8704C36.9914 16.47 37.5018 16.897 38.2168 17.1526C38.9318 17.3985 39.9165 17.5217 41.1709 17.5217H45.3906C46.6449 17.5217 47.6296 17.3984 48.3447 17.1526C49.0598 16.897 49.5643 16.47 49.8574 15.8704C50.1621 15.2707 50.3144 14.4445 50.3145 13.3928V6.60864C50.3145 5.5667 50.162 4.74547 49.8574 4.14575C49.5643 3.546 49.0599 3.11818 48.3447 2.86255C47.6296 2.60696 46.6449 2.47876 45.3906 2.47876H41.1709ZM137.719 2.47583C136.476 2.466 135.497 2.58453 134.782 2.83032C134.068 3.07608 133.557 3.49839 133.252 4.0979C132.948 4.69765 132.795 5.52439 132.795 6.57642V13.3899C132.795 14.4418 132.941 15.2677 133.235 15.8674C133.539 16.4671 134.05 16.895 134.765 17.1506C135.479 17.3965 136.465 17.5188 137.719 17.5188H141.939C143.193 17.5188 144.178 17.3965 144.894 17.1506C145.608 16.895 146.112 16.4671 146.406 15.8674C146.71 15.2677 146.862 14.4417 146.862 13.3899V6.60571C146.862 5.5637 146.71 4.74255 146.406 4.14282C146.112 3.54315 145.608 3.11526 144.894 2.85962C144.178 2.60402 143.193 2.47586 141.939 2.47583H137.719ZM12.5938 0.00122261C14.8877 0.00122992 16.6386 0.385841 17.8467 1.15259C19.0548 1.90962 19.7578 3.1084 19.9531 4.75025C20.0262 5.16295 19.9284 5.47831 19.6602 5.69458C19.3918 5.91067 19.0004 6.01873 18.4883 6.0188C17.5611 6.01866 17.0234 5.60524 16.877 4.77954C16.7549 3.87544 16.3648 3.26605 15.7061 2.95142C15.115 2.66392 14.1973 2.50839 12.9541 2.48364V2.47193L1.18164 2.43482C1.41799 2.12308 1.68871 1.84167 1.99609 1.594C3.32625 0.512782 5.3831 -0.0184382 8.16504 0.00122261H12.5938ZM77.9619 0.000246048C79.813 0.000246048 81.2638 0.319204 82.3115 0.958254C83.3709 1.59728 84.0399 2.57652 84.3193 3.8938C84.3891 4.31615 84.2957 4.64039 84.04 4.86646C83.784 5.08276 83.399 5.19165 82.8867 5.19165C82.4215 5.19157 82.0726 5.08831 81.8398 4.88208C81.6071 4.67567 81.4557 4.37578 81.3857 3.98267C81.1996 3.40279 80.8439 3.0095 80.3203 2.80298C79.7964 2.58676 79.0094 2.47779 77.9619 2.47779H73.0469C72.8157 2.47779 72.5965 2.48672 72.3906 2.49829H67.2275C67.4692 2.05129 67.7783 1.66587 68.1562 1.34302C69.2157 0.448322 70.8466 0.000246048 73.0469 0.000246048H77.9619ZM174.51 -0.00170708C176.361 -0.00170708 177.812 0.317232 178.859 0.956301C179.919 1.59531 180.588 2.57383 180.867 3.89087C180.937 4.31345 180.844 4.63839 180.588 4.8645C180.332 5.08067 179.947 5.18872 179.435 5.18872C178.97 5.18861 178.621 5.08534 178.389 4.87915C178.156 4.67272 178.004 4.37293 177.934 3.97974C177.748 3.39991 177.392 3.00656 176.868 2.80005C176.344 2.58378 175.558 2.47486 174.51 2.47486H169.595C169.363 2.47486 169.144 2.48379 168.938 2.49536H163.776C164.017 2.04832 164.327 1.66295 164.704 1.34009C165.764 0.445398 167.394 -0.00170152 169.595 -0.00170708H174.51Z" fill="url(#paint0_linear_43_308)"/>
</mask>
<g mask="url(#mask0_43_308)">
<rect y="0.000606537" width="181.997" height="19.9989" fill="url(#paint1_linear_43_308)"/>
</g>
<defs>
<linearGradient id="paint0_linear_43_308" x1="9.98801" y1="-0.000513536" x2="9.98801" y2="19.9992" gradientUnits="userSpaceOnUse">
<stop stop-color="#CF7B5A"/>
<stop offset="1" stop-color="#382928"/>
</linearGradient>
<linearGradient id="paint1_linear_43_308" x1="90.9986" y1="0.000606537" x2="90.9986" y2="19.9995" gradientUnits="userSpaceOnUse">
<stop stop-color="#DE7B54"/>
<stop offset="1" stop-color="#4A2C1F"/>
</linearGradient>
</defs>
</svg>
