<svg width="16" height="16" viewBox="0 0 16 16" fill="none" xmlns="http://www.w3.org/2000/svg">
<path fill-rule="evenodd" clip-rule="evenodd" d="M14.6663 13.9997C14.6663 14.3679 14.3678 14.6663 13.9997 14.6663H1.99998C1.63179 14.6663 1.33331 14.3679 1.33331 13.9997V13.333C1.33331 12.9648 1.63179 12.6663 1.99998 12.6663H13.9997C14.3678 12.6663 14.6663 12.9648 14.6663 13.333V13.9997ZM5.66632 10.9997C5.66632 11.3679 5.36784 11.6663 4.99965 11.6663H4.33299C3.9648 11.6663 3.66632 11.3679 3.66632 10.9997V8.33301C3.66632 7.96482 3.9648 7.66634 4.33299 7.66634H4.99965C5.36784 7.66634 5.66632 7.96482 5.66632 8.333V10.9997ZM9.00031 10.9997C9.00031 11.3679 8.70183 11.6663 8.33364 11.6663H7.66697C7.29878 11.6663 7.00031 11.3679 7.00031 10.9997V8.33301C7.00031 7.96482 7.29878 7.66634 7.66697 7.66634H8.33364C8.70183 7.66634 9.00031 7.96482 9.00031 8.333V10.9997ZM12.3333 10.9997C12.3333 11.3679 12.0348 11.6663 11.6666 11.6663H11C10.6318 11.6663 10.3333 11.3679 10.3333 10.9997V8.33301C10.3333 7.96482 10.6318 7.66634 11 7.66634H11.6666C12.0348 7.66634 12.3333 7.96482 12.3333 8.333V10.9997ZM14.2733 4.15643C14.5125 4.26409 14.6663 4.50204 14.6663 4.76437V5.99967C14.6663 6.36786 14.3678 6.66634 13.9997 6.66634H1.99998C1.63179 6.66634 1.33331 6.36786 1.33331 5.99967V4.7644C1.33331 4.50205 1.48717 4.2641 1.72641 4.15644L7.72672 1.45644C7.90071 1.37815 8.0999 1.37815 8.27388 1.45645L14.2733 4.15643Z" fill="#777677"/>
</svg>
