<svg width="16" height="16" viewBox="0 0 16 16" fill="none" xmlns="http://www.w3.org/2000/svg">
<path d="M14.0003 1.33333C14.3684 1.33351 14.6664 1.63224 14.6664 2.00033V3.33333C14.6664 3.70141 14.3684 4.00015 14.0003 4.00033H13.3333V10.6663H14.0003C14.3684 10.6665 14.6664 10.9653 14.6664 11.3333C14.6664 11.7014 14.3684 12.0002 14.0003 12.0003H8.33334V12.724C8.72158 12.8612 9.0002 13.2311 9.00034 13.6663C9.00034 14.2185 8.55247 14.6662 8.00034 14.6663C7.44805 14.6663 7.00034 14.2186 7.00034 13.6663C7.00047 13.2312 7.27827 12.8613 7.66635 12.724V12.0003H2.00034C1.63215 12.0003 1.33334 11.7015 1.33334 11.3333C1.33334 10.9651 1.63215 10.6663 2.00034 10.6663H2.66635V4.00033H2.00034C1.63215 4.00033 1.33334 3.70152 1.33334 3.33333V2.00033C1.33334 1.63214 1.63215 1.33333 2.00034 1.33333H14.0003ZM5.33334 4.00033C4.9653 4.0005 4.66635 4.29924 4.66635 4.66732V9.33333C4.66653 9.70127 4.96541 10.0001 5.33334 10.0003C5.70128 10.0002 5.99918 9.70126 5.99936 9.33333V4.66732C5.99936 4.29924 5.70138 4.0005 5.33334 4.00033ZM7.99936 6.40072C7.63154 6.40107 7.33346 6.69886 7.33334 7.06673V9.33333C7.33352 9.70116 7.63158 9.99997 7.99936 10.0003C8.36744 10.0003 8.66618 9.70137 8.66635 9.33333V7.06673C8.66623 6.69865 8.36747 6.40072 7.99936 6.40072ZM10.6664 4.59994C10.2983 4.60011 9.99941 4.89889 9.99936 5.26693V9.33333C9.99953 9.70127 10.2984 10.0001 10.6664 10.0003C11.0344 10.0003 11.3332 9.70137 11.3333 9.33333V5.26693C11.3333 4.89878 11.0345 4.59994 10.6664 4.59994Z" fill="#777677"/>
</svg>
