<svg width="16" height="16" viewBox="0 0 16 16" fill="none" xmlns="http://www.w3.org/2000/svg">
<path fill-rule="evenodd" clip-rule="evenodd" d="M10.367 2.85687C10.4712 2.63122 10.7327 2.52233 10.9597 2.62347C12.1008 3.13236 13.0594 3.92678 13.7176 4.91448C14.4527 6.01792 14.774 7.30493 14.6346 8.58538C14.495 9.86598 13.9016 11.0728 12.9422 12.0268C12.3892 12.5765 11.7312 13.0251 11.0047 13.3549C10.8055 13.4453 10.7788 13.7284 10.9656 13.8422C11.1822 13.9738 11.2504 14.2565 11.1189 14.4731C10.9873 14.6895 10.7056 14.7579 10.489 14.6264L9.07108 13.7651C8.8547 13.6335 8.78545 13.3517 8.91678 13.1352C9.08757 12.8543 9.49987 12.8868 9.81424 12.7905C10.7144 12.5145 11.5261 12.0368 12.1697 11.3969C12.9792 10.592 13.4807 9.57408 13.5984 8.49359C13.716 7.41323 13.4443 6.3269 12.824 5.39593C12.2935 4.59986 11.5313 3.95332 10.6248 3.52288C10.3748 3.4042 10.2511 3.10817 10.367 2.85687ZM5.03592 1.60296C5.16759 1.38668 5.44934 1.31822 5.6658 1.44964L7.08377 2.31097C7.30026 2.44249 7.36937 2.72429 7.23807 2.94085C6.99849 3.33493 6.35397 3.14281 5.91971 3.29827C5.12569 3.58253 4.40941 4.02677 3.82987 4.60296C3.02038 5.40785 2.51985 6.42582 2.40213 7.50628C2.28447 8.58671 2.55522 9.6729 3.17557 10.6039C3.7063 11.4004 4.46878 12.0475 5.37576 12.478C5.62544 12.5965 5.7489 12.8909 5.63358 13.142C5.52959 13.3681 5.26809 13.4776 5.0408 13.3764C3.89956 12.8677 2.94021 12.0741 2.28201 11.0864C1.54673 9.98282 1.22551 8.69509 1.36502 7.41448C1.50457 6.13399 2.09808 4.92798 3.05741 3.97405C3.65199 3.38289 4.36789 2.9082 5.15994 2.57269C5.302 2.51252 5.32111 2.31388 5.18924 2.23382C4.97281 2.10221 4.90447 1.81949 5.03592 1.60296ZM8.33377 4.00042C8.51766 4.00066 8.66678 4.14948 8.66678 4.33343V4.74652C9.11184 4.83729 9.51271 5.07726 9.8035 5.4262C10.0212 5.68745 10.1677 5.99821 10.2312 6.32855C10.2665 6.51187 10.1132 6.66644 9.92655 6.66644H9.2576C9.07723 6.66644 8.9474 6.51345 8.86502 6.35296C8.77037 6.16842 8.54381 6.00042 7.99979 6.00042C7.13352 6.00049 6.66707 6.41976 6.66678 6.66644C6.66678 6.91309 6.66666 7.33339 7.99979 7.33343C10.3198 7.33343 10.6668 8.58676 10.6668 9.33343C10.6667 10.1934 9.99996 11.053 8.66678 11.2797V11.6664C8.66678 11.8504 8.51766 12.0002 8.33377 12.0004H7.66678C7.48269 12.0004 7.33377 11.8505 7.33377 11.6664V11.2797C6.02695 11.0731 5.50553 10.277 5.37088 9.66351C5.33161 9.4838 5.48277 9.33343 5.66678 9.33343H6.33377C6.51764 9.33368 6.68016 9.49311 6.80155 9.63128C6.95876 9.81025 7.29407 10.0004 7.99979 10.0004C8.91965 10.0004 9.33365 9.5468 9.33377 9.33343C9.33377 9.1201 9.33312 8.66644 7.99979 8.66644C5.67998 8.66636 5.33377 7.41308 5.33377 6.66644C5.33389 5.80651 6.00056 4.94696 7.33377 4.72698V4.33343C7.33377 4.14933 7.48269 4.00042 7.66678 4.00042H8.33377Z" fill="#777677"/>
</svg>
