<svg width="16" height="16" viewBox="0 0 16 16" fill="none" xmlns="http://www.w3.org/2000/svg">
<path d="M11.9574 8.66634C12.1184 8.66634 12.2492 8.79736 12.2494 8.95833V9.28841C12.6387 9.36401 12.99 9.56422 13.2445 9.85482C13.4316 10.0687 13.5585 10.3232 13.6156 10.5931C13.6492 10.7529 13.5153 10.888 13.3519 10.888H12.766C12.6084 10.8878 12.4951 10.7521 12.4164 10.6156C12.3299 10.4665 12.1302 10.3324 11.6664 10.3324C10.9088 10.3325 10.5002 10.6824 10.4994 10.888C10.4994 11.0935 10.4998 11.4436 11.6664 11.4437C13.696 11.4438 13.9993 12.4885 13.9994 13.1107C13.9992 13.8272 13.4161 14.5439 12.2494 14.7327V15.0404C12.2494 15.2015 12.1185 15.3324 11.9574 15.3324H11.3744C11.2134 15.3322 11.0824 15.2014 11.0824 15.0404V14.7327C9.94882 14.562 9.49112 13.9081 9.3685 13.3988C9.33128 13.2426 9.46278 13.1111 9.62338 13.1107H10.2074C10.3683 13.1107 10.5138 13.2504 10.6253 13.3665C10.7661 13.5132 11.0602 13.6663 11.6664 13.6663C12.4708 13.6662 12.832 13.2885 12.8324 13.1107C12.8324 12.9328 12.8321 12.5551 11.6664 12.555C9.63619 12.5549 9.33237 11.5102 9.33237 10.888C9.3327 10.1717 9.91601 9.45517 11.0824 9.27181V8.95833C11.0825 8.79747 11.2135 8.66652 11.3744 8.66634H11.9574ZM11.3333 1.33333C11.7015 1.33336 12.0003 1.63215 12.0003 2.00033V2.66634C13.4728 2.66654 14.6662 3.86085 14.6664 5.33333V8.00033C14.6663 8.36817 14.3681 8.66606 14.0003 8.66634C13.6323 8.66634 13.3334 8.36835 13.3333 8.00033V7.33333C13.3332 6.59723 12.7364 5.99955 12.0003 5.99935H4.00034C3.26406 5.99935 2.66653 6.5971 2.66635 7.33333V11.9993C2.66635 12.7357 3.26396 13.3333 4.00034 13.3333H8.00034C8.36819 13.3336 8.66635 13.6324 8.66635 14.0003C8.66626 14.3682 8.36814 14.6661 8.00034 14.6663H4.00034C2.52758 14.6663 1.33334 13.4721 1.33334 11.9993V5.33333C1.33352 3.86072 2.52768 2.66634 4.00034 2.66634V2.00033C4.00034 1.63224 4.29831 1.33351 4.66635 1.33333C5.03452 1.33336 5.33334 1.63215 5.33334 2.00033V2.66634H10.6664V2.00033C10.6664 1.63214 10.9652 1.33333 11.3333 1.33333Z" fill="#777677"/>
</svg>
