<svg width="16" height="16" viewBox="0 0 16 16" fill="none" xmlns="http://www.w3.org/2000/svg">
<path d="M11.3333 1.33332C11.7015 1.33332 12.0003 1.63212 12.0003 2.00031V2.66632C12.0003 3.03451 11.7015 3.33332 11.3333 3.33332H10.6663V4.66632H11.4534C11.7712 4.66632 12.0444 4.89094 12.1068 5.20246L13.3333 11.3333H14.0003C14.3683 11.3335 14.6663 11.6322 14.6663 12.0003V14.0003C14.6661 14.3682 14.3682 14.6661 14.0003 14.6663H2.00031C1.63222 14.6663 1.33349 14.3683 1.33331 14.0003V12.0003C1.33331 11.6321 1.63212 11.3333 2.00031 11.3333H2.66632L3.89288 5.20246C3.95524 4.89101 4.22859 4.66647 4.5462 4.66632H9.33331V3.33332H8.00031C7.63212 3.33332 7.33331 3.03451 7.33331 2.66632V2.00031C7.33331 1.63212 7.63212 1.33332 8.00031 1.33332H11.3333ZM2.6673 12.0003C2.29911 12.0003 2.00031 12.2991 2.00031 12.6673V13.3333C2.00048 13.7014 2.29922 14.0003 2.6673 14.0003H13.3333C13.7012 14.0001 14.0001 13.7012 14.0003 13.3333V12.6673C14.0003 12.2992 13.7014 12.0005 13.3333 12.0003H2.6673ZM5.33331 7.33332C4.96527 7.33349 4.6673 7.63223 4.6673 8.00031V9.33332C4.66747 9.70125 4.96538 10.0001 5.33331 10.0003H6.6673C7.03508 9.99996 7.33314 9.70114 7.33331 9.33332V8.00031C7.33331 7.63234 7.03519 7.33367 6.6673 7.33332H5.33331ZM8.50031 9.00031C8.22416 9.00031 8.00031 9.22417 8.00031 9.50031C8.00048 9.7763 8.22427 10.0003 8.50031 10.0003H10.8333C11.1092 10.0001 11.3331 9.77619 11.3333 9.50031C11.3333 9.22427 11.1093 9.00048 10.8333 9.00031H8.50031ZM8.50031 7.33332C8.22427 7.33332 8.00048 7.55732 8.00031 7.83332C8.00048 8.10931 8.22427 8.33332 8.50031 8.33332H10.8333C11.1092 8.33314 11.3331 8.1092 11.3333 7.83332C11.3331 7.55743 11.1092 7.33349 10.8333 7.33332H8.50031ZM8.33331 2.00031C8.14948 2.00048 8.00048 2.14948 8.00031 2.33332C8.00048 2.51715 8.14948 2.66713 8.33331 2.6673H11.0003C11.1841 2.66712 11.3331 2.51715 11.3333 2.33332C11.3331 2.14948 11.1841 2.00048 11.0003 2.00031H8.33331Z" fill="#777677"/>
</svg>
