<svg width="16" height="16" viewBox="0 0 16 16" fill="none" xmlns="http://www.w3.org/2000/svg">
<path fill-rule="evenodd" clip-rule="evenodd" d="M11.6667 8.66666C13.3235 8.66666 14.6666 10.0099 14.6667 11.6667C14.6667 13.3235 13.3235 14.6667 11.6667 14.6667C10.0098 14.6667 8.66666 13.3235 8.66666 11.6667C8.66672 10.0099 10.0098 8.66666 11.6667 8.66666ZM6.99966 14.0003C6.99966 14.1844 6.85043 14.3337 6.66633 14.3337H1.99999C1.81589 14.3337 1.66666 14.1844 1.66666 14.0003V9.333C1.66666 9.14891 1.81589 8.99967 1.99999 8.99967H6.66633C6.85043 8.99967 6.99966 9.14891 6.99966 9.333V14.0003ZM11.0381 6.8313C11.1688 7.05351 11.0086 7.33365 10.7508 7.33365H5.24942C4.99162 7.33365 4.8314 7.05354 4.96209 6.83133L7.71238 2.15512C7.84125 1.936 8.15811 1.93598 8.28701 2.15508L11.0381 6.8313Z" fill="#777677"/>
</svg>
