<svg width="16" height="16" viewBox="0 0 16 16" fill="none" xmlns="http://www.w3.org/2000/svg">
<path d="M12.4626 4.16434C12.6479 3.9597 12.9649 3.94396 13.1696 4.12919C13.374 4.3145 13.3899 4.63159 13.2048 4.83622L6.87082 11.8362C6.86633 11.8412 6.85983 11.8442 6.8552 11.8489C6.85422 11.8499 6.85422 11.8518 6.85324 11.8528C6.84954 11.8565 6.84434 11.859 6.84055 11.8626C6.82169 11.8803 6.80277 11.8971 6.78195 11.9114C6.77128 11.9187 6.75984 11.9245 6.74875 11.9309C6.73206 11.9406 6.71548 11.9497 6.69797 11.9573C6.68483 11.963 6.67141 11.9675 6.65793 11.972C6.64012 11.9779 6.6225 11.9837 6.60422 11.9876C6.5926 11.9901 6.5808 11.9908 6.56906 11.9925C6.54822 11.9954 6.52759 11.998 6.50656 11.9983C6.49742 11.9985 6.48836 11.9977 6.47922 11.9974C6.45627 11.9964 6.43356 11.9946 6.41086 11.9905C6.39926 11.9884 6.38814 11.9846 6.37668 11.9817C6.35859 11.9771 6.34058 11.9728 6.32297 11.9661C6.30826 11.9605 6.29424 11.9536 6.28 11.9466C6.2645 11.9389 6.24893 11.9315 6.2341 11.9222C6.2223 11.9147 6.21121 11.9063 6.19992 11.8977C6.18833 11.889 6.17576 11.8813 6.16477 11.8714C6.16025 11.8673 6.1564 11.8619 6.15207 11.8577C6.15031 11.856 6.14795 11.8546 6.14621 11.8528L2.8132 8.51981C2.61811 8.32454 2.618 8.00799 2.8132 7.81278C3.00843 7.61778 3.32503 7.61775 3.52023 7.81278L6.48117 10.7737L12.4626 4.16434Z" fill="#777677"/>
</svg>
