<svg width="16" height="16" viewBox="0 0 16 16" fill="none" xmlns="http://www.w3.org/2000/svg">
<path d="M9.33334 5.33333C10.0696 5.33333 10.6662 5.93011 10.6664 6.66634V13.3333C10.6664 14.0697 10.0697 14.6663 9.33334 14.6663H2.66635C1.93012 14.6662 1.33334 14.0696 1.33334 13.3333V6.66634C1.33352 5.93022 1.93023 5.33351 2.66635 5.33333H9.33334ZM13.3333 1.33333C14.0696 1.33333 14.6662 1.93011 14.6664 2.66634V9.33333C14.6664 10.0697 14.0697 10.6663 13.3333 10.6663H12.333C11.9648 10.6663 11.6664 10.3679 11.6664 9.99968V6.33333C11.6664 5.22876 10.7709 4.33333 9.66635 4.33333H6.00001C5.63182 4.33333 5.33334 4.03486 5.33334 3.66667V2.66634C5.33352 1.93022 5.93023 1.33351 6.66635 1.33333H13.3333Z" fill="#777677"/>
</svg>
