<svg width="16" height="16" viewBox="0 0 16 16" fill="none" xmlns="http://www.w3.org/2000/svg">
<path d="M6.66632 10.0003C7.0344 10.0003 7.33314 10.2983 7.33331 10.6663V14.0003C7.33314 14.3684 7.0344 14.6663 6.66632 14.6663H2.00031C1.63222 14.6663 1.33349 14.3684 1.33331 14.0003V10.6663C1.33349 10.2983 1.63222 10.0003 2.00031 10.0003H6.66632ZM14.0003 7.33333C14.3683 7.33351 14.6663 7.63224 14.6663 8.00033V14.0003C14.6661 14.3683 14.3682 14.6662 14.0003 14.6663H9.33331C8.96523 14.6663 8.6665 14.3684 8.66632 14.0003V8.00033C8.66632 7.63214 8.96512 7.33333 9.33331 7.33333H14.0003ZM6.66632 1.33333C7.03451 1.33333 7.33331 1.63214 7.33331 2.00033V8.00033C7.33314 8.36837 7.0344 8.66634 6.66632 8.66634H2.00031C1.63222 8.66634 1.33349 8.36837 1.33331 8.00033V2.00033C1.33331 1.63214 1.63212 1.33333 2.00031 1.33333H6.66632ZM14.0003 1.33333C14.3683 1.33351 14.6663 1.63224 14.6663 2.00033V5.33333C14.6663 5.70142 14.3683 6.00015 14.0003 6.00033H9.33331C8.96512 6.00033 8.66632 5.70152 8.66632 5.33333V2.00033C8.66632 1.63214 8.96512 1.33333 9.33331 1.33333H14.0003Z" fill="#777677"/>
</svg>
