<svg width="16" height="16" viewBox="0 0 16 16" fill="none" xmlns="http://www.w3.org/2000/svg">
<path d="M14 10.833C14.276 10.833 14.4998 11.057 14.5 11.333V13.333C14.5 13.9773 13.9773 14.5 13.333 14.5H2.66699C2.02266 14.5 1.5 13.9773 1.5 13.333V11.333C1.50018 11.057 1.72397 10.833 2 10.833C2.27603 10.833 2.49982 11.057 2.5 11.333V13.333C2.5 13.4251 2.57495 13.5 2.66699 13.5H13.333C13.4251 13.5 13.5 13.4251 13.5 13.333V11.333C13.5002 11.057 13.724 10.833 14 10.833ZM8 1.50001C8.27588 1.50018 8.49982 1.72412 8.5 2.00001V10.127L10.9805 7.64649C11.1758 7.45155 11.4923 7.45134 11.6875 7.64649C11.8823 7.84167 11.8823 8.15834 11.6875 8.35352L8.35352 11.6865C8.15824 11.8816 7.84169 11.8817 7.64648 11.6865L4.31348 8.35352C4.11827 8.15831 4.11838 7.84177 4.31348 7.64649C4.50876 7.45155 4.82535 7.45134 5.02051 7.64649L7.5 10.126V2.00001C7.50018 1.72412 7.72412 1.50018 8 1.50001Z" fill="#777677"/>
</svg>
