<svg width="16" height="16" viewBox="0 0 16 16" fill="none" xmlns="http://www.w3.org/2000/svg">
<path d="M11.3333 1.33333C11.7015 1.33333 12.0003 1.63214 12.0003 2.00033V2.66634C13.4728 2.66652 14.6662 3.86083 14.6663 5.33333V7.33333C14.6662 7.70136 14.3674 7.99935 13.9993 7.99935C13.6316 7.99922 13.3333 7.70108 13.3333 7.33333C13.3332 6.59721 12.7364 5.99953 12.0003 5.99935H4.00032C3.26405 5.99935 2.66651 6.5971 2.66634 7.33333V11.9993C2.66634 12.7357 3.26394 13.3333 4.00032 13.3333H7.3343C7.70218 13.3336 8.00032 13.6324 8.00032 14.0003C8.00023 14.3682 7.70213 14.6661 7.3343 14.6663H4.00032C2.52756 14.6663 1.33333 13.4721 1.33333 11.9993V5.33333C1.3335 3.86072 2.52767 2.66634 4.00032 2.66634V2.00033C4.00032 1.63224 4.2983 1.33351 4.66634 1.33333C5.03453 1.33333 5.33333 1.63214 5.33333 2.00033V2.66634H10.6663V2.00033C10.6663 1.63214 10.9651 1.33333 11.3333 1.33333ZM11.057 8.17025C11.1787 7.94432 11.489 7.94432 11.6107 8.17025L12.474 9.77181C12.5194 9.85589 12.5983 9.91579 12.6888 9.9349L14.4115 10.2992C14.6541 10.3507 14.751 10.6601 14.5833 10.8509L13.3929 12.2044C13.3304 12.2756 13.3003 12.372 13.3109 12.4681L13.513 14.2952C13.5412 14.5525 13.2899 14.7435 13.0648 14.6361L11.4661 13.8704C11.3822 13.8303 11.2854 13.8304 11.2015 13.8704L9.60286 14.6361C9.37757 14.744 9.12638 14.5527 9.15462 14.2952L9.35579 12.4681C9.36637 12.3722 9.33707 12.2756 9.27473 12.2044L8.0843 10.8509C7.91656 10.66 8.01322 10.3504 8.25618 10.2992L9.97884 9.9349C10.0693 9.91571 10.1483 9.85596 10.1937 9.77181L11.057 8.17025Z" fill="#777677"/>
</svg>
