<svg width="16" height="16" viewBox="0 0 16 16" fill="none" xmlns="http://www.w3.org/2000/svg">
<path d="M11.3333 1.33333C11.7015 1.33333 12.0003 1.63214 12.0003 2.00033V2.66634C13.4728 2.66652 14.6661 3.86083 14.6663 5.33333V7.33333C14.6662 7.70136 14.3674 7.99935 13.9993 7.99935C13.6316 7.99922 13.3333 7.70108 13.3333 7.33333C13.3331 6.59721 12.7364 5.99953 12.0003 5.99935H4.00031C3.26403 5.99935 2.6665 6.5971 2.66632 7.33333V11.9993C2.66632 12.7357 3.26393 13.3333 4.00031 13.3333H7.33429C7.70217 13.3336 8.00031 13.6324 8.00031 14.0003C8.00022 14.3682 7.70211 14.6661 7.33429 14.6663H4.00031C2.52755 14.6663 1.33331 13.4721 1.33331 11.9993V5.33333C1.33349 3.86072 2.52765 2.66634 4.00031 2.66634V2.00033C4.00031 1.63224 4.29828 1.33351 4.66632 1.33333C5.03451 1.33333 5.33331 1.63214 5.33331 2.00033V2.66634H10.6663V2.00033C10.6663 1.63214 10.9651 1.33333 11.3333 1.33333ZM11.0569 8.17025C11.1786 7.94432 11.489 7.94432 11.6107 8.17025L12.4739 9.77181C12.5194 9.85589 12.5983 9.91579 12.6888 9.9349L14.4114 10.2992C14.6541 10.3507 14.751 10.6601 14.5833 10.8509L13.3929 12.2044C13.3303 12.2756 13.3003 12.372 13.3109 12.4681L13.513 14.2952C13.5412 14.5525 13.2899 14.7435 13.0648 14.6361L11.4661 13.8704C11.3822 13.8303 11.2854 13.8304 11.2015 13.8704L9.60284 14.6361C9.37755 14.744 9.12636 14.5527 9.1546 14.2952L9.35577 12.4681C9.36635 12.3722 9.33705 12.2756 9.27472 12.2044L8.08429 10.8509C7.91654 10.66 8.0132 10.3504 8.25616 10.2992L9.97882 9.9349C10.0693 9.91571 10.1483 9.85596 10.1937 9.77181L11.0569 8.17025Z" fill="#777677"/>
</svg>
