<svg width="16" height="16" viewBox="0 0 16 16" fill="none" xmlns="http://www.w3.org/2000/svg">
<path d="M14.6663 12.333C14.6663 12.5171 14.5171 12.6663 14.333 12.6663H1.66665C1.48255 12.6663 1.33331 12.5171 1.33331 12.333V3.66667C1.33331 3.48257 1.48255 3.33333 1.66665 3.33333H14.333C14.5171 3.33333 14.6663 3.48257 14.6663 3.66667V12.333ZM4.96931 4.66634C4.79559 4.66634 4.66632 4.8266 4.66632 5.00033C4.66614 5.92054 3.92052 6.66617 3.00031 6.66634C2.82658 6.66634 2.66632 6.79561 2.66632 6.96933V9.03034C2.66632 9.20407 2.82658 9.33333 3.00031 9.33333C3.92063 9.33351 4.66632 10.08 4.66632 11.0003C4.66629 11.1736 4.7951 11.3333 4.96834 11.3333H11.0322C11.2055 11.3333 11.3333 11.1736 11.3333 11.0003C11.3333 10.0799 12.0798 9.33333 13.0003 9.33333C13.1735 9.33337 13.3333 9.20455 13.3333 9.03132V6.96836C13.3333 6.79512 13.1735 6.66631 13.0003 6.66634C12.0799 6.66634 11.3335 5.92065 11.3333 5.00033C11.3333 4.82656 11.205 4.66634 11.0312 4.66634H4.96931ZM8.00031 6.00033C9.10473 6.0005 10.0003 6.89586 10.0003 8.00033C10.0001 9.10464 9.10462 10.0002 8.00031 10.0003C6.89584 10.0003 6.00048 9.10475 6.00031 8.00033C6.00031 6.89576 6.89574 6.00033 8.00031 6.00033Z" fill="#777677"/>
</svg>
