<svg width="16" height="16" viewBox="0 0 16 16" fill="none" xmlns="http://www.w3.org/2000/svg">
<path fill-rule="evenodd" clip-rule="evenodd" d="M12.9121 9.48243C13.1978 9.25034 13.6174 9.29464 13.8496 9.58008C14.0817 9.86584 14.0387 10.2854 13.7529 10.5176L9.26075 14.168C8.52604 14.7647 7.473 14.7647 6.73829 14.168L2.2461 10.5176C1.96084 10.2855 1.9168 9.8657 2.14844 9.58008C2.38042 9.29457 2.8002 9.25093 3.08594 9.48243L7.57911 13.1328C7.82398 13.3317 8.17504 13.3316 8.41993 13.1328L12.9121 9.48243ZM7.22462 1.55371C7.68812 1.22264 8.31085 1.22278 8.77442 1.55371L13.5293 4.9502C14.2596 5.47197 14.2764 6.55175 13.5625 7.09571L8.80762 10.7178C8.33031 11.0814 7.6687 11.0814 7.19141 10.7178L2.43751 7.09571C1.72352 6.55171 1.74029 5.47193 2.47071 4.9502L7.22462 1.55371Z" fill="#777677"/>
</svg>
