<svg width="16" height="16" viewBox="0 0 16 16" fill="none" xmlns="http://www.w3.org/2000/svg">
<path fill-rule="evenodd" clip-rule="evenodd" d="M8.00027 1.33333C9.76765 1.33544 11.4625 2.03868 12.7122 3.28841C13.9618 4.53819 14.6643 6.23299 14.6663 8.00033C14.6662 9.31863 14.2756 10.6073 13.5432 11.7035C12.8107 12.7998 11.7692 13.6549 10.5511 14.1595C9.33297 14.664 7.99259 14.7956 6.69949 14.5384C5.40628 14.2812 4.21778 13.6465 3.28543 12.7142C2.35317 11.7819 1.71843 10.5933 1.46121 9.30013C1.20411 8.00707 1.33657 6.66659 1.84109 5.44857C2.34566 4.2306 3.20003 3.18983 4.29617 2.45736C5.3925 1.72481 6.68173 1.33333 8.00027 1.33333ZM9.68289 2.54427C9.00983 2.33328 8.30195 2.24962 7.59695 2.29915C6.93699 2.34555 6.29105 2.50758 5.68875 2.77669C5.50858 2.85726 5.45256 3.0811 5.5618 3.24544L5.77469 3.56576C5.83646 3.6585 5.94061 3.71412 6.05203 3.71419H6.98562C7.10523 3.71419 7.21631 3.65007 7.27566 3.54622L7.42117 3.29134C7.51251 3.13152 7.71642 3.07599 7.87625 3.16732L8.1243 3.30892C8.28389 3.40034 8.33958 3.60426 8.24832 3.764L6.61551 6.62142C6.58677 6.67173 6.57159 6.72852 6.57156 6.78646V7.66634C6.57156 7.85044 6.42167 8.00033 6.23758 8.00033H5.95242C5.76833 8.00033 5.61941 7.85044 5.61941 7.66634V7.38119C5.61941 7.19709 5.46952 7.0472 5.28543 7.0472H5.00223C4.91386 7.0472 4.8284 7.0824 4.7659 7.14486L4.04422 7.86751C3.93202 7.97975 3.91441 8.15529 4.00223 8.28744L4.34598 8.80404C4.40773 8.89672 4.51196 8.95237 4.62332 8.95247H6.79324C6.87147 8.95253 6.94887 8.97222 7.01785 9.00911C7.08674 9.04606 7.14535 9.09936 7.18875 9.16439L7.86062 10.1722C7.90349 10.2364 7.93069 10.3103 7.93875 10.387C7.9468 10.4639 7.93614 10.5419 7.9075 10.6136L7.04715 12.762L6.89187 13.2279C6.82941 13.4152 6.9429 13.6163 7.13797 13.6468C7.42286 13.691 7.71162 13.7136 8.00027 13.7142C8.90009 13.7133 9.78673 13.4993 10.5882 13.0902C11.3481 12.7022 12.0114 12.1492 12.5286 11.472C12.5827 11.4009 12.603 11.3101 12.5882 11.222L12.3137 9.59505C12.2959 9.49033 12.2291 9.40037 12.1341 9.35286L10.6936 8.63314C10.6029 8.58779 10.529 8.51444 10.4827 8.42415C10.4364 8.33378 10.4205 8.23042 10.4368 8.13021L10.7805 6.00228C10.8021 5.89439 10.8605 5.79668 10.9456 5.72689C11.0306 5.65714 11.1374 5.61958 11.2473 5.61947H12.6673C12.9102 5.61915 13.0699 5.36715 12.9485 5.15658C12.7302 4.77784 12.4689 4.42537 12.1702 4.10579C12.0298 3.95564 11.7892 3.98373 11.6751 4.15462L11.4749 4.45443C11.4314 4.51963 11.3721 4.57371 11.303 4.61068C11.234 4.64755 11.1567 4.66635 11.0784 4.66634H10.3811C10.255 4.66634 10.1335 4.61681 10.0442 4.52767C9.95498 4.43843 9.90464 4.31695 9.90457 4.19076V2.85384C9.90457 2.71333 9.81691 2.5864 9.68289 2.54427ZM2.7493 8.33919C2.52911 8.26601 2.30422 8.43486 2.33133 8.66536C2.42546 9.46554 2.68792 10.2387 3.10379 10.9329C3.50268 11.5989 4.03257 12.1749 4.65848 12.6273C4.86647 12.7771 5.14271 12.6201 5.14285 12.3636V11.9476C5.14285 11.8593 5.10759 11.7747 5.04519 11.7122L3.85379 10.5208C3.76451 10.4316 3.7142 10.3102 3.71414 10.1839V9.67415C3.71414 9.60835 3.69498 9.54336 3.65848 9.48861L2.99539 8.49544C2.95427 8.43377 2.89384 8.38705 2.82352 8.36361L2.7493 8.33919Z" fill="#777677"/>
</svg>
