<svg width="16" height="16" viewBox="0 0 16 16" fill="none" xmlns="http://www.w3.org/2000/svg">
<path fill-rule="evenodd" clip-rule="evenodd" d="M8.00001 14.6667C11.6819 14.6667 14.6667 11.6819 14.6667 8C14.6667 4.3181 11.6819 1.33333 8.00001 1.33333C4.31811 1.33333 1.33334 4.3181 1.33334 8C1.33334 11.6819 4.31811 14.6667 8.00001 14.6667ZM4.26871 7.48765C4.12031 7.33925 4.12031 7.09865 4.26871 6.95025L5.34078 5.87817L5.342 5.87697C5.4902 5.72957 5.72984 5.72983 5.87773 5.87772L6.98644 6.98643C7.13459 7.13458 7.13459 7.37477 6.98644 7.52293C6.8383 7.67107 6.5981 7.67107 6.44995 7.52293L5.6104 6.68337L4.80611 7.48765C4.65771 7.63605 4.41711 7.63605 4.26871 7.48765ZM8.93541 6.95025C8.78701 7.09865 8.78701 7.33925 8.93541 7.48765C9.08374 7.63605 9.32441 7.63605 9.47281 7.48765L10.2771 6.68337L11.1166 7.52293C11.2647 7.67107 11.5049 7.67107 11.6531 7.52293C11.8013 7.37477 11.8013 7.13458 11.6531 6.98643L10.5449 5.87817C10.3969 5.73028 10.1569 5.72957 10.0087 5.87697L10.0075 5.87817L8.93541 6.95025ZM4.66668 9.33333C5.03705 12.8889 10.9629 12.8889 11.3333 9.33333H4.66668Z" fill="#777677"/>
</svg>
