<svg width="16" height="16" viewBox="0 0 16 16" fill="none" xmlns="http://www.w3.org/2000/svg">
<path d="M8.00032 1.33333C11.6821 1.33351 14.6663 4.31854 14.6663 8.00033C14.6662 11.682 11.682 14.6662 8.00032 14.6663C4.31853 14.6663 1.3335 11.6821 1.33333 8.00033C1.33333 4.31843 4.31842 1.33333 8.00032 1.33333ZM7.66634 7.33333C7.48239 7.33351 7.33333 7.48333 7.33333 7.66732V11.0003C7.33333 11.1843 7.48239 11.3332 7.66634 11.3333H8.33333C8.51727 11.3332 8.66634 11.1843 8.66634 11.0003V7.66732C8.66634 7.48333 8.51727 7.33351 8.33333 7.33333H7.66634ZM7.66634 4.66634C7.48239 4.66652 7.33333 4.81634 7.33333 5.00033V5.66634C7.33333 5.85033 7.48239 5.99917 7.66634 5.99935H8.33333C8.51727 5.99917 8.66634 5.85033 8.66634 5.66634V5.00033C8.66634 4.81634 8.51727 4.66652 8.33333 4.66634H7.66634Z" fill="#777677"/>
</svg>
