<svg width="16" height="16" viewBox="0 0 16 16" fill="none" xmlns="http://www.w3.org/2000/svg">
<path d="M5.31023 1.33333C5.7011 1.33337 6.07376 1.47629 6.42741 1.74642C6.78098 2.01659 7.09759 2.49328 7.33952 3.16048C7.60014 3.82795 8.00964 5.21117 8.54948 7.30892L9.33073 10.265C9.64718 11.4885 9.96437 12.2991 10.318 12.7122C10.6531 13.1252 11.0813 13.3314 11.5466 13.3314C12.3655 13.3313 12.8304 12.8388 12.9421 11.8695H13.3337C13.3337 12.8388 13.1474 13.5544 12.7565 13.9993C12.4028 14.4443 11.9371 14.6663 11.36 14.6663C10.9134 14.6663 10.4668 14.5236 10.0573 14.2376C9.62914 13.9357 9.25663 13.1408 8.92155 11.8695L7.97234 8.24642L4.73308 14.5394H2.66667L7.33952 5.95833C7.07892 4.84593 6.78103 4.01891 6.44597 3.49447C6.09228 2.95414 5.66349 2.68392 5.14226 2.68392C4.73299 2.68399 4.36091 2.82711 4.0446 3.09701C3.74675 3.36717 3.5789 3.78075 3.54167 4.35287H3.15105C3.16966 3.43113 3.37432 2.69983 3.78386 2.15951C4.19337 1.60343 4.696 1.33333 5.31023 1.33333Z" fill="#777677"/>
</svg>
