<svg width="16" height="16" viewBox="0 0 16 16" fill="none" xmlns="http://www.w3.org/2000/svg">
<path d="M12.0003 4.66634C14.0251 4.66652 15.6661 6.30855 15.6663 8.33333C15.6662 10.9409 12.0321 15.1065 12.0003 15.1429C11.9724 15.111 8.33344 10.9423 8.33331 8.33333C8.33349 6.30844 9.97537 4.66634 12.0003 4.66634ZM5.00031 1.33333C6.9155 1.33346 8.56053 2.48759 9.2796 4.13802C7.90762 5.02949 7.00031 6.57525 7.00031 8.33333C7.00031 9.29376 7.27114 10.1907 7.74054 10.9525C6.46585 12.9853 5.02426 14.6389 5.00031 14.6663C4.98904 14.6535 0.333616 9.32965 0.333313 6.00033C0.333313 3.423 2.42298 1.33333 5.00031 1.33333ZM12.0003 7.02376C11.2772 7.02376 10.6909 7.61025 10.6907 8.33333C10.6908 9.0565 11.2771 9.6429 12.0003 9.6429C12.7233 9.64274 13.3098 9.0564 13.3099 8.33333C13.3097 7.61036 12.7233 7.02393 12.0003 7.02376ZM5.00031 4.33333C4.07983 4.33333 3.33331 5.07985 3.33331 6.00033C3.33349 6.92065 4.07994 7.66634 5.00031 7.66634C5.92053 7.66617 6.66614 6.92055 6.66632 6.00033C6.66632 5.07996 5.92064 4.3335 5.00031 4.33333Z" fill="#777677"/>
</svg>
