<svg width="16" height="16" viewBox="0 0 16 16" fill="none" xmlns="http://www.w3.org/2000/svg">
<path d="M13.3333 2.66667C14.0696 2.66667 14.6661 3.26344 14.6663 3.99967V11.9997C14.6663 12.7361 14.0697 13.3337 13.3333 13.3337H2.66632C1.93009 13.3335 1.33331 12.7359 1.33331 11.9997V3.99967C1.33349 3.26355 1.9302 2.66684 2.66632 2.66667H13.3333ZM13.4163 4.72233C13.2632 4.49275 12.9527 4.43082 12.723 4.58366L8.00031 7.7321L3.27765 4.58366C3.04801 4.43057 2.73755 4.49287 2.58429 4.72233C2.43111 4.9521 2.4932 5.26251 2.72296 5.41569L7.53741 8.62565C7.81733 8.81226 8.1823 8.81226 8.46222 8.62565L13.2776 5.41569C13.5071 5.26243 13.5694 4.95197 13.4163 4.72233Z" fill="#777677"/>
</svg>
