<svg width="16" height="16" viewBox="0 0 16 16" fill="none" xmlns="http://www.w3.org/2000/svg">
<path d="M13.3333 1.33333C14.0665 1.33333 14.6661 1.93316 14.6663 2.66634V10.6663C14.6663 11.3997 14.0666 12.0003 13.3333 12.0003H4.00031L1.33331 14.6663L1.34015 2.66634C1.34032 1.93326 1.93325 1.33351 2.66632 1.33333H13.3333ZM5.00031 5.33333C4.44802 5.33333 4.00031 5.78105 4.00031 6.33333C4.00031 6.88562 4.44802 7.33333 5.00031 7.33333C5.55244 7.33316 6.00031 6.88551 6.00031 6.33333C6.00031 5.78116 5.55244 5.33351 5.00031 5.33333ZM8.33331 5.33333C7.78118 5.33351 7.33331 5.78116 7.33331 6.33333C7.33331 6.88551 7.78118 7.33316 8.33331 7.33333C8.88545 7.33316 9.33331 6.88551 9.33331 6.33333C9.33331 5.78116 8.88545 5.33351 8.33331 5.33333ZM11.6673 5.33333C11.115 5.33333 10.6673 5.78105 10.6673 6.33333C10.6673 6.88562 11.115 7.33333 11.6673 7.33333C12.2193 7.33298 12.6673 6.8854 12.6673 6.33333C12.6673 5.78127 12.2193 5.33368 11.6673 5.33333Z" fill="#777677"/>
</svg>
