<svg width="16" height="16" viewBox="0 0 16 16" fill="none" xmlns="http://www.w3.org/2000/svg">
<path d="M14.3333 11.9997C14.5174 11.9997 14.6663 12.1495 14.6663 12.3336V12.9997C14.6663 13.1838 14.5174 13.3336 14.3333 13.3336H1.66632C1.48238 13.3335 1.33331 13.1836 1.33331 12.9997V12.3336C1.33331 12.1497 1.48238 11.9998 1.66632 11.9997H14.3333ZM8.00031 2.66665C8.73643 2.66683 9.33314 3.26354 9.33331 3.99966C9.33331 4.04471 9.33084 4.08954 9.32648 4.13345C9.74462 4.21829 10.155 4.34344 10.5511 4.50747C11.3596 4.84244 12.0943 5.33398 12.7132 5.95278C13.3321 6.57166 13.8235 7.30633 14.1585 8.11489C14.451 8.82091 14.6204 9.57205 14.6585 10.3336C14.6675 10.5173 14.5172 10.6665 14.3333 10.6666H1.66632C1.4826 10.6663 1.33214 10.5172 1.34113 10.3336C1.37925 9.57207 1.54773 8.82089 1.84015 8.11489C2.1751 7.30638 2.6667 6.57166 3.28546 5.95278C3.90441 5.33387 4.6399 4.84248 5.44855 4.50747C5.84461 4.34343 6.25498 4.2183 6.67316 4.13345C6.66879 4.08955 6.66632 4.0447 6.66632 3.99966C6.6665 3.26343 7.26403 2.66665 8.00031 2.66665ZM6.63312 5.4606C6.51314 5.21242 6.21458 5.10783 5.96613 5.2272C5.22803 5.58307 4.55477 6.06373 3.97784 6.6481C3.40094 7.23261 2.92862 7.91219 2.58234 8.65493C2.4659 8.90506 2.57456 9.20323 2.82452 9.31997C3.07453 9.43613 3.37185 9.32754 3.48859 9.07778C3.78654 8.43869 4.19336 7.85418 4.68976 7.35122C5.18621 6.84834 5.76554 6.43481 6.4007 6.12856C6.64889 6.00848 6.75273 5.70907 6.63312 5.4606Z" fill="#777677"/>
</svg>
