<svg width="16" height="16" viewBox="0 0 16 16" fill="none" xmlns="http://www.w3.org/2000/svg">
<path d="M13.6664 4.66634C14.2185 4.66634 14.6662 5.11421 14.6664 5.66634C14.6664 6.21863 14.2186 6.66634 13.6664 6.66634C13.6246 6.66633 13.5837 6.66253 13.5433 6.65755L11.7191 10.306C11.8926 10.4858 12.0002 10.7299 12.0003 10.9993C12.0003 11.5515 11.5525 11.9992 11.0003 11.9993C10.4481 11.9993 10.0003 11.5516 10.0003 10.9993C10.0004 10.9388 10.0066 10.8792 10.0169 10.8216L6.98569 9.08919C6.81045 9.24062 6.58307 9.33333 6.33334 9.33333C6.22888 9.33333 6.1282 9.31717 6.03354 9.28744L3.16537 13.1117C3.27136 13.2703 3.33328 13.4612 3.33334 13.6663C3.33334 14.2186 2.88563 14.6663 2.33334 14.6663C1.78106 14.6663 1.33334 14.2186 1.33334 13.6663C1.33352 13.1142 1.78117 12.6663 2.33334 12.6663C2.43735 12.6663 2.53788 12.6818 2.63217 12.7113L5.50034 8.88607C5.39512 8.72773 5.33341 8.53763 5.33334 8.33333C5.33352 7.7812 5.78117 7.33333 6.33334 7.33333C6.88552 7.33333 7.33317 7.7812 7.33334 8.33333C7.33332 8.39365 7.32603 8.45271 7.31577 8.51009L10.347 10.2425C10.5222 10.0911 10.7507 9.99935 11.0003 9.99935C11.0417 9.99936 11.0824 10.0023 11.1224 10.0072L12.9466 6.3597C12.7734 6.17991 12.6664 5.93565 12.6664 5.66634C12.6665 5.11432 13.1143 4.66652 13.6664 4.66634ZM3.66635 5.66634L4.66635 6.00033L3.66635 6.33333L3.33334 7.33333L3.00034 6.33333L2.00034 6.00033L3.00034 5.66634L3.33334 4.66634L3.66635 5.66634ZM10.7503 2.58333L12.0003 3.00033L10.7503 3.41634L10.3333 4.66634L9.91635 3.41634L8.66635 3.00033L9.91635 2.58333L10.3333 1.33333L10.7503 2.58333Z" fill="#777677"/>
</svg>
