<svg width="16" height="16" viewBox="0 0 16 16" fill="none" xmlns="http://www.w3.org/2000/svg">
<path fill-rule="evenodd" clip-rule="evenodd" d="M3.33331 8.8335C3.60946 8.8335 3.83331 9.05736 3.83331 9.3335V13.9995C3.83331 14.2757 3.60946 14.4995 3.33331 14.4995C3.05717 14.4995 2.83331 14.2757 2.83331 13.9995V9.3335C2.83331 9.05736 3.05717 8.8335 3.33331 8.8335ZM6.66632 6.16651C6.94241 6.16651 7.16624 6.39044 7.16632 6.66651V13.9995C7.16632 14.2757 6.94246 14.4995 6.66632 14.4995C6.39033 14.4993 6.16632 14.2755 6.16632 13.9995V6.66651C6.1664 6.39054 6.39038 6.16668 6.66632 6.16651ZM9.66632 6.8335C9.94246 6.8335 10.1663 7.05736 10.1663 7.3335V13.9995C10.1663 14.2757 9.94246 14.4995 9.66632 14.4995C9.39033 14.4993 9.16632 14.2755 9.16632 13.9995V7.3335C9.16632 7.05747 9.39033 6.83368 9.66632 6.8335ZM12.6663 4.8335C12.9425 4.8335 13.1663 5.05736 13.1663 5.3335V13.9995C13.1663 14.2757 12.9425 14.4995 12.6663 14.4995C12.3903 14.4993 12.1663 14.2755 12.1663 13.9995V5.3335C12.1663 5.05747 12.3903 4.83368 12.6663 4.8335ZM12.3597 1.93897C12.5775 1.76957 12.8912 1.80837 13.0609 2.02588C13.2303 2.2438 13.1917 2.55846 12.9739 2.72803L10.2552 4.84229C9.9473 5.08174 9.54026 5.15116 9.17023 5.02784L6.89972 4.271C6.83983 4.25104 6.77346 4.26738 6.72882 4.31202L3.68683 7.35401C3.49163 7.54894 3.175 7.54894 2.9798 7.35401C2.78454 7.15875 2.78454 6.84126 2.9798 6.646L6.02179 3.60401C6.33426 3.29172 6.79701 3.18305 7.21613 3.32276L9.48663 4.07959C9.53926 4.09701 9.59708 4.08713 9.64093 4.05323L12.3597 1.93897Z" fill="#777677"/>
</svg>
