<svg width="16" height="16" viewBox="0 0 16 16" fill="none" xmlns="http://www.w3.org/2000/svg">
<path fill-rule="evenodd" clip-rule="evenodd" d="M11.2499 7.33333C11.4339 7.33338 11.5828 7.48242 11.583 7.66634V8.0179C11.9724 8.1011 12.3236 8.32106 12.5781 8.64095C12.7627 8.87314 12.8891 9.14827 12.9472 9.44076C12.9833 9.62358 12.8299 9.77766 12.6435 9.77767H12.1415C11.9609 9.77767 11.832 9.62243 11.7431 9.46517C11.6532 9.30613 11.4524 9.16636 10.9999 9.16634C10.2417 9.16634 9.83308 9.55154 9.83295 9.77767C9.83295 10.0038 9.83328 10.389 10.9999 10.389C13.0297 10.389 13.3329 11.5375 13.333 12.222C13.333 13.0103 12.7496 13.7984 11.583 14.0062V14.3333C11.583 14.5174 11.434 14.6663 11.2499 14.6663H10.7499C10.5658 14.6663 10.4169 14.5174 10.4169 14.3333V14.0062C9.29188 13.8198 8.83174 13.1105 8.70502 12.5521C8.66459 12.3727 8.81598 12.222 8.99994 12.222H9.49994C9.68396 12.2221 9.84661 12.3828 9.97162 12.5179C10.1169 12.6749 10.4109 12.8333 10.9999 12.8333C11.8049 12.8333 12.1669 12.4176 12.1669 12.222C12.1669 12.0264 12.1661 11.6107 10.9999 11.6107C8.96994 11.6107 8.66694 10.4621 8.66694 9.77767C8.66699 8.98937 9.25032 8.20101 10.4169 7.99935V7.66634C10.4171 7.4824 10.566 7.33333 10.7499 7.33333H11.2499ZM13.9462 1.33333C14.505 1.33351 14.8157 1.97989 14.4667 2.41634L11.7519 5.80892C11.651 5.93483 11.4943 6.00029 11.333 6.00033H10.6669C8.82599 6.00033 7.33295 7.49238 7.33295 9.33333V12.6663C7.33295 12.9522 7.0291 13.1808 6.77338 13.0531L6.36811 12.8509C6.14239 12.7379 5.99995 12.5067 5.99994 12.2542V9.16927C5.99989 8.4125 5.7422 7.6782 5.26948 7.08724L1.53315 2.41634C1.18396 1.97983 1.49466 1.33333 2.05366 1.33333H13.9462Z" fill="#777677"/>
</svg>
