<svg width="16" height="16" viewBox="0 0 16 16" fill="none" xmlns="http://www.w3.org/2000/svg">
<path fill-rule="evenodd" clip-rule="evenodd" d="M11.7305 1.476C11.8636 1.2924 12.1364 1.2924 12.2695 1.476L12.7305 2.11077C12.8636 2.294 13.1364 2.294 13.2695 2.11077L13.7588 1.43596C13.8346 1.33174 13.9996 1.38525 14 1.51409V14.4877C14 14.617 13.8346 14.6705 13.7588 14.5658L13.2695 13.892C13.1364 13.7084 12.8636 13.7084 12.7305 13.892L12.2695 14.5268C12.1364 14.71 11.8636 14.71 11.7305 14.5268L11.2695 13.892C11.1364 13.7084 10.8636 13.7084 10.7305 13.892L10.2705 14.5268C10.1373 14.7104 9.86346 14.7096 9.73047 14.5258L9.27051 13.8901C9.13744 13.7062 8.86256 13.7062 8.72949 13.8901L8.26953 14.5258C8.13654 14.7096 7.86266 14.7104 7.72949 14.5268L7.26953 13.892C7.13645 13.7084 6.86356 13.7084 6.73047 13.892L6.26953 14.5268C6.13644 14.71 5.86356 14.71 5.73047 14.5268L5.26953 13.892C5.13644 13.7084 4.86356 13.7084 4.73047 13.892L4.26953 14.5268C4.13644 14.71 3.86356 14.71 3.73047 14.5268L3.26953 13.892C3.13644 13.7084 2.86356 13.7084 2.73047 13.892L2.24121 14.5658C2.16536 14.6705 2 14.617 2 14.4877V1.51409C2.00035 1.38523 2.16537 1.33173 2.24121 1.43596L2.73047 2.11077C2.86356 2.294 3.13644 2.294 3.26953 2.11077L3.73047 1.476C3.86356 1.2924 4.13644 1.2924 4.26953 1.476L4.73047 2.11077C4.86356 2.29399 5.13644 2.29399 5.26953 2.11077L5.73047 1.476C5.86356 1.2924 6.13644 1.2924 6.26953 1.476L6.73047 2.11077C6.86356 2.29399 7.13644 2.29399 7.26953 2.11077L7.73047 1.476C7.86356 1.2924 8.13644 1.2924 8.26953 1.476L8.73047 2.11077C8.86356 2.29399 9.13644 2.29399 9.26953 2.11077L9.73047 1.476C9.86356 1.2924 10.1364 1.2924 10.2695 1.476L10.7305 2.11077C10.8636 2.294 11.1364 2.29399 11.2695 2.11077L11.7305 1.476ZM4.66699 10.4272C4.48294 10.4272 4.33307 10.5761 4.33301 10.7602C4.33301 10.9443 4.4829 11.0932 4.66699 11.0932H11.333C11.5171 11.0932 11.667 10.9443 11.667 10.7602C11.6669 10.5761 11.5171 10.4272 11.333 10.4272H4.66699ZM4.66699 7.66741C4.4829 7.66741 4.33301 7.8173 4.33301 8.00139C4.33313 8.18538 4.48297 8.3344 4.66699 8.3344H11.333C11.517 8.3344 11.6669 8.18538 11.667 8.00139C11.667 7.8173 11.5171 7.66741 11.333 7.66741H4.66699ZM4.66699 4.90862C4.48305 4.90862 4.33325 5.05774 4.33301 5.24163C4.33301 5.42572 4.4829 5.57561 4.66699 5.57561H11.333C11.5171 5.57561 11.667 5.42572 11.667 5.24163C11.6668 5.05774 11.517 4.90862 11.333 4.90862H4.66699Z" fill="#777677"/>
</svg>
