<svg width="16" height="16" viewBox="0 0 16 16" fill="none" xmlns="http://www.w3.org/2000/svg">
<path fill-rule="evenodd" clip-rule="evenodd" d="M5.00001 14.6667C4.81592 14.6667 4.66668 14.5174 4.66668 14.3333V13.6667C4.66668 13.4826 4.81592 13.3333 5.00001 13.3333H7.00001V10.8889C5.7926 10.6444 5.05186 9.80741 4.5852 8.6963C2.75557 8.46667 1.33334 6.92593 1.33334 5.03704V4.2963C1.33334 3.48148 2.00001 2.81482 2.81483 2.81482L4.00001 2.81481V1.66667C4.00001 1.48257 4.14925 1.33333 4.33334 1.33333L11.6667 1.33333C11.8508 1.33333 12 1.48257 12 1.66667V2.81481H13.1852C14 2.81481 14.6667 3.48148 14.6667 4.2963V5.03704C14.6667 6.92593 13.2445 8.46667 11.4148 8.6963C10.9482 9.80741 10.2074 10.6444 9.00001 10.8889V13.3333H11C11.1841 13.3333 11.3333 13.4826 11.3333 13.6667V14.3333C11.3333 14.5174 11.1841 14.6667 11 14.6667L5.00001 14.6667ZM2.81483 5.03704V4.2963L4.00001 4.2963V7.12593C3.14075 6.81482 2.81483 6 2.81483 5.03704ZM13.1852 5.03704V4.2963H12V7.12593C12.8593 6.81481 13.1852 6 13.1852 5.03704Z" fill="#777677"/>
</svg>
