<svg width="16" height="16" viewBox="0 0 16 16" fill="none" xmlns="http://www.w3.org/2000/svg">
<path d="M11.3333 1.33333C11.7015 1.33333 12.0003 1.63214 12.0003 2.00033V2.14779C12.0003 2.51598 12.2991 2.81478 12.6673 2.81478H13.1849C13.9997 2.81478 14.6663 3.48144 14.6664 4.29622V5.03744C14.6663 5.42606 14.6051 5.79957 14.4925 6.14974C14.3757 6.5124 13.9294 6.58846 13.5951 6.4056C13.2877 6.23736 13.1071 5.8681 13.1537 5.52083C13.1745 5.36538 13.1849 5.20371 13.1849 5.03744V4.889C13.1849 4.56205 12.92 4.29649 12.5931 4.29622C12.2662 4.29622 12.0006 4.56114 12.0003 4.88802V5.33333C12.0003 5.70152 11.7015 6.00033 11.3333 6.00033C9.49239 6.00033 8.00034 7.49238 8.00034 9.33333V12.6663C8.00034 12.9431 8.03446 13.2119 8.09799 13.4691C8.22976 14.0025 7.88169 14.666 7.33237 14.6663H5.33334C4.96541 14.6663 4.66662 14.3682 4.66635 14.0003C4.66635 13.6324 4.96449 13.3336 5.33237 13.3333H6.33334C6.70153 13.3333 7.00034 13.0345 7.00034 12.6663V11.4339C7.00019 11.1169 6.77311 10.8513 6.47787 10.7357C5.68831 10.4266 5.13664 9.82126 4.74643 9.0472C4.63919 8.83443 4.43847 8.68311 4.20639 8.62923C2.56336 8.24881 1.33353 6.79339 1.33334 5.03744V4.29622C1.33338 3.48145 2.00001 2.8148 2.81479 2.81478H3.33334C3.70153 2.81478 4.00034 2.51598 4.00034 2.14779V2.00033C4.00034 1.63214 4.29914 1.33333 4.66733 1.33333H11.3333ZM11.9164 7.33333C12.1003 7.33333 12.2502 7.4824 12.2503 7.66634V8.0179C12.6397 8.10116 12.9901 8.32116 13.2445 8.64095C13.4292 8.87318 13.5555 9.14819 13.6136 9.44076C13.6498 9.62362 13.4964 9.77767 13.3099 9.77767H12.808C12.6274 9.77767 12.4994 9.62234 12.4105 9.46517C12.3206 9.30612 12.1188 9.16634 11.6664 9.16634C10.9083 9.16645 10.5005 9.55158 10.5003 9.77767C10.5003 10.0038 10.5 10.3889 11.6664 10.389C13.6961 10.389 14.0003 11.5375 14.0003 12.222C14.0003 13.0102 13.4167 13.7983 12.2503 14.0062V14.3333C12.2503 14.5174 12.1004 14.6663 11.9164 14.6663H11.4164C11.2324 14.6662 11.0833 14.5173 11.0833 14.3333V14.0062C9.95834 13.8198 9.49912 13.1105 9.37241 12.5521C9.3319 12.3728 9.48249 12.2222 9.66635 12.222H10.1664C10.3503 12.222 10.513 12.3829 10.638 12.5179C10.7833 12.6749 11.0775 12.8333 11.6664 12.8333C12.4714 12.8333 12.8333 12.4176 12.8333 12.222C12.8333 12.0264 12.8326 11.6107 11.6664 11.6107C9.63664 11.6106 9.33334 10.4621 9.33334 9.77767C9.3334 8.98937 9.91673 8.20101 11.0833 7.99935V7.66634C11.0835 7.4825 11.2325 7.33351 11.4164 7.33333H11.9164ZM3.40756 4.29622C3.08018 4.29622 2.81479 4.56162 2.81479 4.889V5.03744C2.81484 5.63564 2.94103 6.17684 3.24252 6.57552C3.52131 6.94398 4.0002 6.6382 4.00034 6.17611V4.889C4.00034 4.56162 3.73494 4.29622 3.40756 4.29622Z" fill="#777677"/>
</svg>
