<svg width="16" height="16" viewBox="0 0 16 16" fill="none" xmlns="http://www.w3.org/2000/svg">
<path fill-rule="evenodd" clip-rule="evenodd" d="M7.76401 2.23573C7.89418 2.10555 8.10551 2.10555 8.23568 2.23573L14.098 8.09803C14.3074 8.30808 14.1584 8.66639 13.8617 8.66639H13.0003C12.8162 8.66639 12.6663 8.81628 12.6663 9.00038V13.6664C12.6663 13.8505 12.5174 14.0004 12.3333 14.0004H9.66635C9.48239 14.0002 9.33334 13.8504 9.33334 13.6664V11.0004C9.33334 10.8164 9.18426 10.6666 9.00033 10.6664H7.00033C6.81624 10.6664 6.66635 10.8163 6.66635 11.0004V13.6664C6.66635 13.8505 6.51742 14.0004 6.33334 14.0004H3.66635C3.48239 14.0002 3.33334 13.8504 3.33334 13.6664V9.00038C3.33334 8.8164 3.18426 8.66658 3.00033 8.66639H2.13803C1.84109 8.66638 1.69274 8.30802 1.90268 8.09803L7.76401 2.23573Z" fill="#777677"/>
</svg>
