<svg width="16" height="16" viewBox="0 0 16 16" fill="none" xmlns="http://www.w3.org/2000/svg">
<path d="M9.05731 1.33333C9.23409 1.33336 9.40399 1.40365 9.52899 1.52865L13.1384 5.13802C13.2633 5.26303 13.3337 5.43294 13.3337 5.6097V13.3333C13.3337 14.0697 12.7361 14.6663 11.9997 14.6663H3.99969C3.26347 14.6662 2.66669 14.0696 2.66669 13.3333V2.66634C2.66686 1.93022 3.26357 1.33351 3.99969 1.33333H9.05731ZM5.33368 6.66732C4.96549 6.66732 4.66669 6.96612 4.66669 7.33431V12.6673C4.66704 13.0352 4.96571 13.3343 5.33368 13.3343C5.7015 13.3341 5.99934 13.0351 5.99969 12.6673V7.33431C5.99969 6.96623 5.70172 6.66749 5.33368 6.66732ZM7.99969 9.33431C7.63176 9.33449 7.33386 9.63239 7.33368 10.0003V12.6673C7.33403 13.0351 7.63187 13.3341 7.99969 13.3343C8.36767 13.3343 8.66634 13.0352 8.66669 12.6673V10.0003C8.66651 9.63229 8.36778 9.33431 7.99969 9.33431ZM10.6667 7.33431C10.2986 7.33431 9.99987 7.63229 9.99969 8.00033V12.6673C10 13.0352 10.2987 13.3343 10.6667 13.3343C11.0347 13.3343 11.3333 13.0352 11.3337 12.6673V8.00033C11.3335 7.63229 11.0348 7.33431 10.6667 7.33431ZM9.23602 2.56966C9.02604 2.35968 8.6667 2.50806 8.66669 2.80501V5.66732C8.66704 5.85101 8.81597 6.00015 8.99969 6.00033H11.862C12.1589 6.00029 12.3071 5.64099 12.0974 5.43099L9.23602 2.56966Z" fill="#777677"/>
</svg>
