<svg width="16" height="16" viewBox="0 0 16 16" fill="none" xmlns="http://www.w3.org/2000/svg">
<path d="M11.6986 8.00033C11.8696 8.00049 12.0134 8.13 12.0306 8.30013L12.055 8.54915C12.0687 8.68447 12.1643 8.7965 12.2914 8.84505C12.3332 8.86104 12.3746 8.87881 12.4154 8.89681C12.5397 8.95156 12.6871 8.93978 12.7923 8.85384L12.9857 8.69564C13.1181 8.58751 13.311 8.59731 13.432 8.7181L13.9486 9.23372C14.0695 9.35486 14.0795 9.54855 13.971 9.68099L13.8128 9.87337C13.7263 9.97879 13.7147 10.1256 13.7699 10.2503C13.7881 10.2914 13.8055 10.3341 13.8216 10.3763C13.8704 10.5028 13.9817 10.5979 14.1165 10.6117L14.3675 10.637C14.5376 10.6544 14.6673 10.7981 14.6673 10.9691V11.6986C14.6671 11.8696 14.5368 12.0135 14.3665 12.0306L14.1165 12.055C13.9811 12.0685 13.8692 12.1641 13.8206 12.2913C13.8047 12.3332 13.7869 12.3746 13.7689 12.4154C13.7141 12.54 13.7256 12.687 13.8119 12.7923L13.971 12.9857C14.0793 13.1182 14.0696 13.3119 13.9486 13.4329L13.432 13.9495C13.311 14.0701 13.1181 14.079 12.9857 13.971L12.7923 13.8128C12.687 13.7266 12.5399 13.715 12.4154 13.7699C12.3743 13.7879 12.3325 13.8056 12.2904 13.8216C12.1631 13.8702 12.0674 13.9819 12.054 14.1175L12.0296 14.3665C12.0127 14.5368 11.8696 14.667 11.6986 14.6673H10.9691C10.7981 14.6673 10.6544 14.5376 10.6371 14.3675L10.6117 14.1165C10.5979 13.9817 10.5028 13.8704 10.3763 13.8216C10.3341 13.8055 10.2915 13.7881 10.2503 13.7699C10.1256 13.7147 9.9788 13.7263 9.87338 13.8128L9.681 13.971C9.54856 14.0795 9.35487 14.0695 9.23373 13.9486L8.71811 13.432C8.5974 13.3111 8.58693 13.1182 8.69467 12.9857L8.85385 12.7904C8.93922 12.6852 8.95019 12.5394 8.89584 12.4154C8.87789 12.3745 8.861 12.3323 8.84506 12.2904C8.79662 12.1632 8.68459 12.0675 8.54916 12.054L8.30112 12.0296C8.13073 12.0128 8.00068 11.8697 8.00034 11.6986V10.9691C8.00034 10.798 8.1299 10.6543 8.30014 10.637L8.55014 10.6117C8.68497 10.5978 8.79665 10.5029 8.84506 10.3763C8.86118 10.334 8.87864 10.2916 8.89682 10.2503C8.95164 10.1258 8.9398 9.97876 8.85385 9.87337L8.69662 9.68099C8.58833 9.54859 8.59739 9.3558 8.71811 9.2347L9.23471 8.7181C9.3557 8.59733 9.54853 8.58756 9.681 8.69564L9.87436 8.85384C9.97971 8.93962 10.127 8.95169 10.2513 8.89681C10.2923 8.87872 10.3343 8.8611 10.3763 8.84505C10.5029 8.7965 10.5978 8.68496 10.6117 8.55013L10.6371 8.30013C10.6543 8.12989 10.798 8.00033 10.9691 8.00033H11.6986ZM10.6664 1.33333C12.1391 1.33333 13.3333 2.52757 13.3333 4.00033V5.89486C13.333 6.13104 13.0928 6.2929 12.8665 6.22494C12.381 6.07913 11.8664 6.00033 11.3333 6.00033C8.38783 6.00033 6.00034 8.38781 6.00034 11.3333C6.00034 11.8664 6.07914 12.381 6.22495 12.8665C6.29291 13.0928 6.13105 13.333 5.89487 13.3333H4.00034C2.52758 13.3333 1.33334 12.1391 1.33334 10.6663V4.00033C1.33334 2.52757 2.52758 1.33333 4.00034 1.33333H10.6664ZM11.3333 10.0003C10.5972 10.0005 10.0005 10.5972 10.0003 11.3333C10.0005 12.0695 10.5972 12.6671 11.3333 12.6673C12.0695 12.6671 12.6672 12.0695 12.6673 11.3333C12.6672 10.5972 12.0695 10.0005 11.3333 10.0003Z" fill="#777677"/>
</svg>
