<svg width="16" height="16" viewBox="0 0 16 16" fill="none" xmlns="http://www.w3.org/2000/svg">
<path d="M11.3333 8.00033C11.7014 8.0005 12.0003 8.29924 12.0003 8.66732V10.6673H14.0003C14.3683 10.6675 14.6671 10.9654 14.6673 11.3333C14.6671 11.7013 14.3683 12.0002 14.0003 12.0003H12.0003V14.0003C12.0001 14.3683 11.7013 14.6671 11.3333 14.6673C10.9654 14.6671 10.6675 14.3683 10.6673 14.0003V12.0003H8.66731C8.29923 12.0003 8.0005 11.7014 8.00032 11.3333C8.0005 10.9653 8.29923 10.6673 8.66731 10.6673H10.6673V8.66732C10.6673 8.29924 10.9653 8.0005 11.3333 8.00033ZM11.3333 1.33333C11.7015 1.33333 12.0003 1.63214 12.0003 2.00033V2.66634C13.4728 2.66652 14.6662 3.86083 14.6663 5.33333V7.33333C14.6662 7.70136 14.3674 7.99935 13.9993 7.99935C13.6316 7.99922 13.3333 7.70108 13.3333 7.33333C13.3332 6.59721 12.7364 5.99953 12.0003 5.99935H4.00032C3.26405 5.99935 2.66651 6.5971 2.66634 7.33333V11.9993C2.66634 12.7357 3.26394 13.3333 4.00032 13.3333H7.3343C7.70218 13.3336 8.00032 13.6324 8.00032 14.0003C8.00023 14.3682 7.70213 14.6661 7.3343 14.6663H4.00032C2.52756 14.6663 1.33333 13.4721 1.33333 11.9993V5.33333C1.3335 3.86072 2.52767 2.66634 4.00032 2.66634V2.00033C4.00032 1.63224 4.2983 1.33351 4.66634 1.33333C5.03453 1.33333 5.33333 1.63214 5.33333 2.00033V2.66634H10.6663V2.00033C10.6663 1.63214 10.9651 1.33333 11.3333 1.33333Z" fill="#777677"/>
</svg>
