<svg width="16" height="16" viewBox="0 0 16 16" fill="none" xmlns="http://www.w3.org/2000/svg">
<path d="M13.3333 1.33333C14.0665 1.33333 14.6661 1.93316 14.6663 2.66634V8.54134C13.8877 7.7938 12.831 7.33333 11.6663 7.33333C11.5542 7.33334 11.4432 7.33864 11.3333 7.34701V5.26693C11.3333 4.89878 11.0345 4.59994 10.6663 4.59994C10.2983 4.60011 9.99938 4.89889 9.99933 5.26693V7.66634C9.50085 7.87435 9.04996 8.17295 8.66632 8.54134V7.06673C8.6662 6.69865 8.36744 6.40072 7.99933 6.40072C7.63151 6.40107 7.33343 6.69886 7.33331 7.06673V9.33333C7.33344 9.59223 7.48283 9.81365 7.69855 9.92415C7.46407 10.4573 7.33336 11.0465 7.33331 11.6663C7.33331 11.7787 7.33957 11.8902 7.34796 12.0003H4.00031L1.33331 14.6663L1.34015 2.66634C1.34032 1.93326 1.93325 1.33351 2.66632 1.33333H13.3333ZM11.6663 8.66634C13.3231 8.66634 14.6661 10.0096 14.6663 11.6663C14.6663 13.3232 13.3232 14.6663 11.6663 14.6663C10.0096 14.6662 8.66632 13.3231 8.66632 11.6663C8.6665 10.0097 10.0097 8.66652 11.6663 8.66634ZM11.805 10.0843C11.7439 9.97209 11.5884 9.9717 11.5276 10.0843L11.096 10.8851C11.0733 10.9272 11.0339 10.9566 10.9886 10.9661L10.1273 11.1488C10.0066 11.1747 9.95853 11.3288 10.0413 11.4242L10.636 12.1009C10.6672 12.1363 10.6821 12.185 10.6771 12.2327L10.5765 13.1468C10.5623 13.2754 10.6876 13.3701 10.8001 13.3167L11.5999 12.9349C11.6416 12.9149 11.6899 12.9152 11.7318 12.9349L12.5316 13.3167C12.6442 13.3707 12.7694 13.2756 12.7552 13.1468L12.6546 12.2327C12.6496 12.1851 12.6646 12.1363 12.6956 12.1009L13.2903 11.4242C13.3742 11.3287 13.3259 11.1744 13.2044 11.1488L12.3431 10.9661C12.2983 10.9563 12.2592 10.9268 12.2366 10.8851L11.805 10.0843ZM5.33331 4.00033C4.96527 4.0005 4.66632 4.29924 4.66632 4.66732V9.33333C4.6665 9.70127 4.96538 10.0001 5.33331 10.0003C5.70124 10.0002 5.99915 9.70126 5.99933 9.33333V4.66732C5.99933 4.29924 5.70135 4.0005 5.33331 4.00033Z" fill="#777677"/>
</svg>
