<svg width="16" height="16" viewBox="0 0 16 16" fill="none" xmlns="http://www.w3.org/2000/svg">
<path fill-rule="evenodd" clip-rule="evenodd" d="M7.9997 1.60005C9.49023 1.60005 10.9211 2.18475 11.9772 3.22798C12.9336 4.17146 13.4325 5.22778 13.5641 6.32466C13.695 7.41189 13.4609 8.50337 13.0143 9.52681C12.1279 11.5631 10.3656 13.4148 8.67548 14.6196C8.47849 14.7605 8.24192 14.8364 7.9997 14.8364C7.75769 14.8363 7.52175 14.7603 7.32489 14.6196C5.63478 13.4148 3.87219 11.5624 2.98505 9.52681C2.53911 8.50326 2.30592 7.41171 2.43622 6.32368C2.56789 5.22758 3.06595 4.17207 4.02216 3.22798C5.08243 2.18374 6.51155 1.59874 7.9997 1.60005ZM8.26435 4.85591C8.17736 4.69443 7.95485 4.69443 7.86786 4.85591L7.25165 6.00142C7.21923 6.06153 7.16297 6.10391 7.09833 6.11763L5.86591 6.3774C5.69257 6.41433 5.62404 6.63558 5.74384 6.77193L6.59442 7.7397C6.63908 7.7906 6.6606 7.85954 6.65302 7.92818L6.50849 9.23384C6.48816 9.41784 6.66781 9.55474 6.8288 9.47798L7.97138 8.93013C8.03142 8.90138 8.10077 8.90143 8.16083 8.93013L9.30341 9.47798C9.46445 9.55495 9.64405 9.41791 9.62372 9.23384L9.47919 7.92818C9.47161 7.85959 9.4932 7.79058 9.53778 7.7397L10.3884 6.77193C10.5082 6.63552 10.4398 6.41418 10.2663 6.3774L9.03485 6.11763C8.97022 6.10398 8.91402 6.06144 8.88153 6.00142L8.26435 4.85591Z" fill="#777677"/>
</svg>
