<svg width="16" height="16" viewBox="0 0 16 16" fill="none" xmlns="http://www.w3.org/2000/svg">
<path d="M8.00034 1.33333C11.6821 1.33351 14.6664 4.31854 14.6664 8.00033C14.6662 11.682 11.682 14.6662 8.00034 14.6663C4.31855 14.6663 1.33352 11.6821 1.33334 8.00033C1.33334 4.31843 4.31844 1.33333 8.00034 1.33333ZM8.00034 8.83333C5.33457 8.83335 4.2388 10.7851 4.01987 11.2396C3.9911 11.2993 3.99495 11.3677 4.02963 11.4242C4.26975 11.8151 5.37173 13.3333 8.00034 13.3333C10.6293 13.3332 11.7313 11.8147 11.971 11.4242C12.0057 11.3676 12.0086 11.2993 11.9798 11.2396C11.7607 10.7848 10.6656 8.83349 8.00034 8.83333ZM8.00034 3.33333C6.88947 3.33333 5.98862 4.22876 5.98862 5.33333C5.98862 6.4379 6.88947 7.83333 8.00034 7.83333C9.11102 7.83301 10.0121 6.43778 10.0121 5.33333C10.0121 4.22889 9.11102 3.33354 8.00034 3.33333Z" fill="#777677"/>
</svg>
