<svg width="16" height="16" viewBox="0 0 16 16" fill="none" xmlns="http://www.w3.org/2000/svg">
<path d="M8.00031 1.33333C11.6821 1.33351 14.6663 4.31854 14.6663 8.00033C14.6661 11.682 11.6819 14.6662 8.00031 14.6663C4.31852 14.6663 1.33349 11.6821 1.33331 8.00033C1.33331 4.31843 4.31841 1.33333 8.00031 1.33333ZM8.00031 2.33333C4.87069 2.33333 2.33331 4.87071 2.33331 8.00033C2.33349 11.1298 4.8708 13.6663 8.00031 13.6663C11.1297 13.6662 13.6661 11.1297 13.6663 8.00033C13.6663 4.87082 11.1298 2.33351 8.00031 2.33333ZM8.33331 4.00033C8.51741 4.00033 8.66632 4.14924 8.66632 4.33333V4.74642C9.11136 4.83717 9.51224 5.07721 9.80304 5.42611C10.0207 5.68734 10.1672 5.99813 10.2308 6.32845C10.266 6.51164 10.1136 6.6661 9.92706 6.66634H9.25714C9.07687 6.66613 8.94688 6.51333 8.86456 6.35286C8.76993 6.16836 8.5441 6.00039 8.00031 6.00033C7.13402 6.00033 6.66673 6.41963 6.66632 6.66634C6.66632 6.91301 6.66697 7.33333 8.00031 7.33333C10.32 7.33345 10.6663 8.5867 10.6663 9.33333C10.6663 10.1933 9.99965 11.053 8.66632 11.2796V11.6663C8.66632 11.8504 8.51741 12.0003 8.33331 12.0003H7.66632C7.48238 12.0002 7.33331 11.8503 7.33331 11.6663V11.2796C6.02654 11.073 5.50604 10.2769 5.3714 9.66341C5.33214 9.4838 5.48245 9.33351 5.66632 9.33333H6.33331C6.51741 9.33333 6.68057 9.49288 6.80206 9.63119C6.95933 9.81014 7.29457 10.0003 8.00031 10.0003C8.92008 10.0002 9.33331 9.54664 9.33331 9.33333C9.33331 9.12002 9.33331 8.66642 8.00031 8.66634C5.68031 8.66634 5.33331 7.41301 5.33331 6.66634C5.33348 5.80646 6.00017 4.94687 7.33331 4.72689V4.33333C7.33331 4.14935 7.48238 4.0005 7.66632 4.00033H8.33331Z" fill="#777677"/>
</svg>
