<svg width="16" height="16" viewBox="0 0 16 16" fill="none" xmlns="http://www.w3.org/2000/svg">
<path fill-rule="evenodd" clip-rule="evenodd" d="M12.5833 7.33313C12.7674 7.33313 12.9164 7.48302 12.9164 7.66712V8.0177C13.3058 8.1009 13.657 8.32086 13.9115 8.64075C14.0961 8.87298 14.2225 9.148 14.2806 9.44056C14.3169 9.62348 14.1634 9.77747 13.9769 9.77747H13.4749C13.2943 9.77747 13.1654 9.62223 13.0765 9.46497C12.9865 9.30599 12.7857 9.16712 12.3333 9.16712C11.5754 9.16712 11.1667 9.55132 11.1664 9.77747C11.1664 10.0036 11.1667 10.3888 12.3333 10.3888C14.3629 10.3888 14.6662 11.5373 14.6664 12.2218C14.6664 13.0101 14.083 13.7992 12.9164 14.007V14.3331C12.9164 14.5172 12.7674 14.6671 12.5833 14.6671H12.0833C11.8992 14.6671 11.7503 14.5172 11.7503 14.3331V14.007C10.6256 13.8207 10.1663 13.1112 10.0394 12.5529C9.99866 12.3733 10.1492 12.2218 10.3333 12.2218H10.8333C11.0173 12.2218 11.18 12.3826 11.305 12.5177C11.4503 12.6747 11.7443 12.8331 12.3333 12.8331C13.1383 12.8331 13.5003 12.4174 13.5003 12.2218C13.5003 12.0261 13.4992 11.6115 12.3333 11.6115C10.3033 11.6115 10.0003 10.4619 10.0003 9.77747C10.0005 8.98924 10.5838 8.20079 11.7503 7.99915V7.66712C11.7503 7.48302 11.8992 7.33313 12.0833 7.33313H12.5833ZM11.3958 4.66712C11.9271 4.66712 12.4555 4.82924 12.8343 5.2052C12.8954 5.26583 12.9555 5.32759 13.014 5.39075C13.2317 5.62601 12.9869 6.00012 12.6664 6.00012H12.0003C10.1595 6.00012 8.66646 7.49228 8.66635 9.33313V12.6671C8.6664 13.0136 8.40936 13.3331 8.06284 13.3331H4.3978C3.62663 13.3331 2.25813 12.3614 1.92612 11.6583C1.87309 11.5459 1.82309 11.4431 1.7767 11.3478C1.49097 10.7608 1.33337 10.4375 1.33334 9.61927C1.33334 7.89134 2.03458 6.3282 3.16537 5.2052C3.54414 4.82917 4.07263 4.66716 4.60385 4.66712H11.3958ZM7.29233 1.49036C7.51141 1.28119 7.82232 1.28108 8.04135 1.49036L8.89389 2.30481C9.06263 2.46612 9.29092 2.50715 9.49155 2.41126L9.95639 2.1886C10.2964 2.02607 10.6664 2.32518 10.6664 2.76282C10.6663 3.4461 10.203 4.00013 9.6312 4.00013H5.70248C5.13067 4.00013 4.66636 3.4461 4.66635 2.76282C4.66635 2.32526 5.03632 2.02627 5.37631 2.1886L5.84213 2.41126C6.04271 2.50703 6.27111 2.46606 6.43979 2.30481L7.29233 1.49036Z" fill="#777677"/>
</svg>
