<svg width="16" height="16" viewBox="0 0 16 16" fill="none" xmlns="http://www.w3.org/2000/svg">
<path fill-rule="evenodd" clip-rule="evenodd" d="M5.76426 1.72024C6.0243 1.62784 6.31032 1.76297 6.40293 2.02298C6.49536 2.283 6.35918 2.56899 6.09922 2.66165C5.20006 2.98184 4.396 3.52408 3.7623 4.23782C3.12867 4.95155 2.68567 5.81397 2.47422 6.74466C2.26279 7.67537 2.29025 8.64458 2.55332 9.56204C2.81639 10.4793 3.30677 11.3155 3.9791 11.9927C4.65154 12.6698 5.48459 13.1666 6.4 13.4361C7.31557 13.7055 8.28525 13.7396 9.21738 13.5347C10.1494 13.3297 11.015 12.8928 11.733 12.2642C12.4511 11.6355 12.9984 10.8349 13.3248 9.93802C13.4193 9.67862 13.707 9.54476 13.9664 9.63919C14.2256 9.73383 14.3596 10.0215 14.2652 10.2808C13.8812 11.3358 13.236 12.2766 12.3912 13.0161C11.5465 13.7556 10.5287 14.2701 9.43223 14.5113C8.33559 14.7524 7.19493 14.713 6.11777 14.396C5.04075 14.079 4.06128 13.4944 3.27012 12.6978C2.47892 11.901 1.90094 10.9168 1.59141 9.83743C1.28201 8.75818 1.25089 7.61781 1.49961 6.52298C1.74842 5.42807 2.26976 4.41341 3.01523 3.57376C3.76073 2.73418 4.70652 2.09689 5.76426 1.72024ZM7.42148 3.0845C7.42148 1.94688 8.36091 0.996409 9.45664 1.30228C11.9916 2.01011 13.9892 4.00744 14.6969 6.54251C15.0023 7.63803 14.0511 8.57767 12.9137 8.57767H8.45078C7.88211 8.57756 7.42155 8.11607 7.42148 7.54739V3.0845Z" fill="#777677"/>
</svg>
