<svg width="16" height="16" viewBox="0 0 16 16" fill="none" xmlns="http://www.w3.org/2000/svg">
<path fill-rule="evenodd" clip-rule="evenodd" d="M5.7919 13.5785C5.85968 13.4074 6.05309 13.3245 6.22794 13.3821C6.69381 13.5354 7.17778 13.6275 7.66741 13.6563C7.85118 13.6671 8.00055 13.8153 8.00055 13.9994V14.3328C8.00055 14.5169 7.85122 14.667 7.66735 14.6578C7.05171 14.627 6.44314 14.5111 5.85938 14.3132C5.68501 14.2541 5.60141 14.0595 5.6692 13.8884L5.7919 13.5785ZM8.00317 1.33396C8.00338 1.33403 8.00359 1.33406 8.0038 1.33406C8.09828 1.33411 8.19258 1.33587 8.28668 1.33992C8.31404 1.34109 8.34139 1.34231 8.36872 1.34383C8.44343 1.34796 8.51795 1.35379 8.59235 1.36043C8.61416 1.36237 8.63599 1.36413 8.65778 1.36629C8.72369 1.37282 8.78945 1.38026 8.85504 1.38875C8.89674 1.39413 8.93847 1.39918 8.98004 1.40535C9.06368 1.41778 9.14704 1.43176 9.23004 1.44734C9.25326 1.45169 9.27621 1.45739 9.29938 1.46199C9.37744 1.4775 9.45538 1.49351 9.53278 1.51179C9.55437 1.51689 9.57569 1.52309 9.59723 1.5284C9.66256 1.54452 9.72775 1.56109 9.79254 1.57918C9.82678 1.58873 9.86099 1.59837 9.89508 1.60847C10.0706 1.66051 10.2439 1.71986 10.4146 1.78621C10.4276 1.79125 10.441 1.7955 10.454 1.8006C10.4543 1.80072 10.4544 1.80111 10.4542 1.80134C10.4539 1.80158 10.454 1.80197 10.4543 1.80209C10.8906 1.97484 11.3096 2.1938 11.7037 2.45711C12.0683 2.70072 12.4063 2.97819 12.7134 3.28523C12.7338 3.30558 12.7539 3.32713 12.774 3.34773C12.8082 3.38287 12.8421 3.41831 12.8756 3.45418C12.9057 3.48655 12.9359 3.51889 12.9654 3.55183C13.0059 3.59705 13.0453 3.64323 13.0845 3.68953C13.1053 3.71402 13.1266 3.73799 13.147 3.76277C13.2035 3.8313 13.2584 3.90101 13.3121 3.97176C13.3386 4.00668 13.3634 4.04277 13.3892 4.0782C13.4154 4.11421 13.4419 4.15006 13.4673 4.1866C13.4995 4.23275 13.5311 4.2793 13.5621 4.32625C13.5793 4.35239 13.596 4.37895 13.6129 4.40535C13.6452 4.45586 13.6776 4.50632 13.7086 4.55769C13.8016 4.71193 13.8878 4.87042 13.9683 5.0323C13.9891 5.07402 14.009 5.11611 14.0289 5.15828C14.0451 5.19265 14.0611 5.22711 14.0767 5.26179C14.0902 5.29162 14.1053 5.32071 14.1183 5.35074C14.1185 5.35117 14.1182 5.35164 14.1177 5.35164C14.1173 5.35164 14.117 5.35211 14.1172 5.35253C14.131 5.38446 14.1454 5.41614 14.1588 5.44832C14.4954 6.2611 14.6656 7.12878 14.6656 8.00008C14.6656 8.00618 14.6656 8.01253 14.6656 8.01863C14.6648 8.30993 14.6442 8.60142 14.605 8.89168C14.601 8.92198 14.5968 8.95226 14.5923 8.9825C14.5765 9.08871 14.5597 9.19518 14.5386 9.30086C14.503 9.48022 14.4588 9.6572 14.4088 9.83211C14.4036 9.85004 14.3984 9.86793 14.3931 9.88582C14.3702 9.96352 14.3456 10.0406 14.3199 10.1173C14.3112 10.1433 14.3026 10.1694 14.2935 10.1954C14.2726 10.2554 14.2497 10.3147 14.2271 10.3741C14.2171 10.4003 14.2093 10.4274 14.199 10.4535C14.1989 10.4538 14.1985 10.4539 14.1983 10.4537C14.1981 10.4535 14.1977 10.4535 14.1976 10.4538C13.8639 11.2966 13.3613 12.067 12.7144 12.7139C12.199 13.2294 11.6028 13.6563 10.9504 13.9783C10.7854 14.0597 10.5887 13.9813 10.5156 13.8124L10.383 13.5062C10.3099 13.3373 10.3881 13.1419 10.5525 13.059C11.0896 12.7881 11.5811 12.4332 12.0074 12.0069C12.5751 11.4391 13.0124 10.7595 13.2955 10.0157C13.5383 9.37758 13.6635 8.70073 13.6656 8.01765C13.6679 7.27113 13.5234 6.52747 13.2349 5.83113C13.2137 5.77989 13.1912 5.72927 13.1685 5.67879C12.896 5.07199 12.519 4.51807 12.0543 4.04207C11.7804 3.76155 11.4772 3.50813 11.148 3.28816C10.6989 2.98808 10.2114 2.75627 9.70172 2.59578C9.52716 2.54086 9.35023 2.49482 9.17145 2.45711C9.12592 2.44748 9.08051 2.43729 9.03473 2.42879C8.80323 2.38588 8.56873 2.35708 8.33302 2.34304C8.14913 2.33209 7.99972 2.18366 7.9999 1.99944L8.00055 1.33585C8.00055 1.33449 8.00188 1.33353 8.00317 1.33396ZM2.49343 10.3825C2.66239 10.3094 2.85778 10.3876 2.94074 10.552C3.16178 10.99 3.43897 11.3976 3.76491 11.7643C3.88728 11.9019 3.88802 12.1125 3.75769 12.2426L3.52142 12.4786C3.39121 12.6086 3.1796 12.6091 3.05615 12.4726C2.6425 12.0154 2.29421 11.5029 2.02136 10.95C1.9399 10.7849 2.01833 10.5883 2.18724 10.5151L2.49343 10.3825ZM7.99957 5.33308C9.47233 5.33308 10.6666 6.52732 10.6666 8.00008C10.6665 9.4728 9.47231 10.6671 7.99957 10.6671C6.52703 10.6668 5.3336 9.47266 5.33356 8.00008C5.33356 6.52746 6.52701 5.33331 7.99957 5.33308ZM2.42116 5.79143C2.5923 5.8592 2.67511 6.05261 2.61757 6.22746C2.46427 6.69332 2.37215 7.17734 2.34335 7.66695C2.33255 7.85072 2.18433 8.00008 2.00024 8.00008H1.66691C1.48281 8.00008 1.3327 7.85073 1.34189 7.66686C1.37268 7.05126 1.48859 6.44263 1.68645 5.8589C1.74555 5.68453 1.94011 5.60093 2.11129 5.66872L2.42116 5.79143ZM5.6171 2.49295C5.69026 2.66191 5.61205 2.8573 5.44769 2.94029C5.00989 3.16136 4.6027 3.43865 4.23617 3.76459C4.09861 3.88692 3.8882 3.88772 3.75803 3.75755L3.52142 3.52095C3.39124 3.39077 3.3907 3.17902 3.52723 3.05552C3.9844 2.64199 4.49689 2.29371 5.04968 2.0209C5.21475 1.93944 5.4114 2.01786 5.48454 2.18678L5.6171 2.49295Z" fill="#777677"/>
</svg>
