<svg width="16" height="16" viewBox="0 0 16 16" fill="none" xmlns="http://www.w3.org/2000/svg">
<path d="M10.7699 1.33626C11.8265 1.38997 12.6663 2.26338 12.6663 3.33333V12.6663C12.6663 13.7363 11.8265 14.6107 10.7699 14.6644L10.6663 14.6663H5.33333C4.26337 14.6663 3.38997 13.8265 3.33626 12.7699L3.33333 12.6663V3.33333C3.33333 2.22876 4.22876 1.33333 5.33333 1.33333H10.6663L10.7699 1.33626ZM5.33333 2.33333C4.78104 2.33333 4.33333 2.78105 4.33333 3.33333V12.6663C4.33333 13.2186 4.78104 13.6663 5.33333 13.6663H10.6663C11.2186 13.6663 11.6663 13.2186 11.6663 12.6663V3.33333C11.6663 2.78105 11.2186 2.33333 10.6663 2.33333H9.90462L9.77962 2.77279C9.74146 2.90633 9.60393 3.00032 9.44661 3.00033H6.55305C6.39591 3.00019 6.25919 2.90619 6.22102 2.77279L6.09505 2.33333H5.33333Z" fill="#777677"/>
</svg>
