<svg width="16" height="16" viewBox="0 0 16 16" fill="none" xmlns="http://www.w3.org/2000/svg">
<path fill-rule="evenodd" clip-rule="evenodd" d="M12.5837 7.33365C12.7676 7.33377 12.9166 7.48269 12.9167 7.66666V8.01822C13.3061 8.10142 13.6573 8.32043 13.9118 8.64029C14.0964 8.87242 14.2217 9.14766 14.28 9.4401C14.3163 9.62303 14.1637 9.77791 13.9772 9.77799H13.4743C13.294 9.77774 13.1657 9.62254 13.0768 9.46549C12.9869 9.30646 12.786 9.1667 12.3337 9.16666C11.5753 9.16666 11.1667 9.55188 11.1667 9.77799C11.1667 10.0041 11.1672 10.3893 12.3337 10.3893C14.3635 10.3894 14.6667 11.5379 14.6667 12.2223C14.6667 13.0107 14.0833 13.7987 12.9167 14.0065V14.3337C12.9166 14.5176 12.7676 14.6665 12.5837 14.6667H12.0837C11.8996 14.6667 11.7498 14.5177 11.7497 14.3337V14.0065C10.625 13.82 10.1654 13.1108 10.0387 12.5524C9.99813 12.3729 10.1496 12.2223 10.3337 12.2223H10.8337C11.0177 12.2225 11.1803 12.3832 11.3053 12.5182C11.4507 12.6752 11.7447 12.8337 12.3337 12.8337C13.1385 12.8336 13.4997 12.4179 13.4997 12.2223C13.4997 12.0268 13.5001 11.611 12.3337 11.611C10.3038 11.611 9.99971 10.4624 9.99968 9.77799C9.99968 8.98975 10.5833 8.20145 11.7497 7.99967V7.66666C11.7497 7.48262 11.8996 7.33365 12.0837 7.33365H12.5837ZM8.6657 1.36685C9.74898 1.47555 10.7929 1.84812 11.7038 2.4567C12.8001 3.18921 13.6543 4.23078 14.1589 5.44888C14.3329 5.86893 14.0266 6.33365 13.5719 6.33365H11.9997C9.99997 6.3338 8.99968 7.3338 8.99968 9.33365V13.985C8.99965 14.303 8.7754 14.5808 8.45964 14.6188C7.40588 14.7455 6.49289 14.5913 5.4489 14.1588C4.23079 13.6543 3.18922 12.8 2.45671 11.7038C1.84813 10.7929 1.47556 9.74897 1.36687 8.66568C1.33013 8.29948 1.63169 7.9999 1.99968 7.99967H7.33367C7.70169 7.99955 7.99957 7.70167 7.99968 7.33365V1.99967C7.99992 1.63168 8.29949 1.33011 8.6657 1.36685ZM6.33562 1.37955C6.69942 1.32381 6.99944 1.63167 6.99968 1.99967V6.33365C6.99957 6.70168 6.7017 6.99956 6.33367 6.99967H1.99968C1.63169 6.99942 1.32383 6.6994 1.37956 6.3356C1.44603 5.90178 1.5836 5.53539 1.78972 5.03775C2.09125 4.3098 2.53335 3.64764 3.0905 3.09049C3.64765 2.53334 4.30981 2.09123 5.03777 1.78971C5.5354 1.58359 5.9018 1.44602 6.33562 1.37955Z" fill="#777677"/>
</svg>
