<svg width="16" height="16" viewBox="0 0 16 16" fill="none" xmlns="http://www.w3.org/2000/svg">
<path d="M8 12C8.18399 12 8.33283 12.1491 8.33301 12.333V13.667C8.33283 13.8509 8.18399 14 8 14C7.81601 14 7.66717 13.8509 7.66699 13.667V12.333C7.66717 12.1491 7.81601 12 8 12ZM4.76172 10.8887C4.89189 10.7585 5.10322 10.7585 5.2334 10.8887C5.36349 11.0189 5.36354 11.2302 5.2334 11.3604L4.29004 12.3027C4.15989 12.4328 3.94949 12.4328 3.81934 12.3027C3.68916 12.1726 3.68916 11.9612 3.81934 11.8311L4.76172 10.8887ZM10.7666 10.8887C10.8968 10.7585 11.1081 10.7585 11.2383 10.8887L12.1807 11.8311C12.3108 11.9612 12.3108 12.1726 12.1807 12.3027C12.0505 12.4328 11.8401 12.4328 11.71 12.3027L10.7666 11.3604C10.6365 11.2302 10.6366 11.0188 10.7666 10.8887ZM8 4.66602C9.84095 4.66602 11.333 6.15905 11.333 8C11.3329 9.84087 9.84089 11.333 8 11.333C6.15911 11.333 4.66708 9.84087 4.66699 8C4.66699 6.15905 6.15905 4.66602 8 4.66602ZM3.66699 7.66699C3.85094 7.66717 4 7.81601 4 8C4 8.18399 3.85094 8.33283 3.66699 8.33301H2.33301C2.14906 8.33283 2 8.18399 2 8C2 7.81601 2.14906 7.66717 2.33301 7.66699H3.66699ZM13.667 7.66699C13.8509 7.66717 14 7.81601 14 8C14 8.18399 13.8509 8.33283 13.667 8.33301H12.333C12.1491 8.33283 12 8.18399 12 8C12 7.81601 12.1491 7.66717 12.333 7.66699H13.667ZM3.81934 3.69629C3.94942 3.56658 4.15995 3.56658 4.29004 3.69629L5.2334 4.63965C5.36337 4.76984 5.36351 4.98122 5.2334 5.11133C5.10328 5.2413 4.89186 5.24126 4.76172 5.11133L3.81934 4.16797C3.68916 4.03779 3.68916 3.82646 3.81934 3.69629ZM11.71 3.69629C11.84 3.56655 12.0506 3.56662 12.1807 3.69629C12.3108 3.82646 12.3108 4.03779 12.1807 4.16797L11.2383 5.11133C11.1081 5.24122 10.8967 5.24133 10.7666 5.11133C10.6365 4.98124 10.6367 4.76984 10.7666 4.63965L11.71 3.69629ZM8 2C8.18399 2 8.33283 2.14906 8.33301 2.33301V3.66699C8.33283 3.85094 8.18399 4 8 4C7.81601 4 7.66717 3.85094 7.66699 3.66699V2.33301C7.66717 2.14906 7.81601 2 8 2Z" fill="#777677"/>
</svg>
