<svg width="16" height="16" viewBox="0 0 16 16" fill="none" xmlns="http://www.w3.org/2000/svg">
<path fill-rule="evenodd" clip-rule="evenodd" d="M7.44579 1.67251C7.68919 1.22065 8.31078 1.22065 8.55418 1.67251L10.2807 4.87661C10.3716 5.04518 10.5282 5.16451 10.7095 5.20278L14.1557 5.93032C14.6416 6.03297 14.834 6.65201 14.4985 7.03383L12.1186 9.74184C11.9935 9.88429 11.9343 10.077 11.9556 10.2692L12.3589 13.9235C12.4157 14.4387 11.9121 14.821 11.4614 14.6051L8.26512 13.0739C8.09696 12.9933 7.90301 12.9933 7.73485 13.0739L4.53856 14.6051C4.08785 14.821 3.58431 14.4387 3.6411 13.9235L4.04539 10.2692C4.06662 10.077 4.00647 9.88429 3.88133 9.74184L1.50145 7.03383C1.166 6.65202 1.3584 6.03299 1.84422 5.93032L5.29051 5.20278C5.47179 5.16451 5.62842 5.04518 5.71922 4.87661L7.44579 1.67251Z" fill="#777677"/>
</svg>
