<svg width="16" height="16" viewBox="0 0 16 16" fill="none" xmlns="http://www.w3.org/2000/svg">
<path d="M12.0003 8.66634C12.3684 8.66652 12.6663 8.96525 12.6663 9.33333V10.6663H14.0003C14.3684 10.6665 14.6663 10.9653 14.6663 11.3333C14.6663 11.7014 14.3684 12.0002 14.0003 12.0003H12.6663V13.3333C12.6663 13.7014 12.3684 14.0002 12.0003 14.0003C11.6321 14.0003 11.3333 13.7015 11.3333 13.3333V12.0003H10.0003C9.63213 12.0003 9.33333 11.7015 9.33333 11.3333C9.33333 10.9651 9.63213 10.6663 10.0003 10.6663H11.3333V9.33333C11.3333 8.96514 11.6321 8.66634 12.0003 8.66634ZM8.88899 9.33333C9.02341 9.33337 9.14248 9.39428 9.22395 9.48861C8.50466 9.79157 8.00032 10.5038 8.00032 11.3333C8.00032 12.1627 8.50484 12.874 9.22395 13.1771C9.14247 13.2717 9.02368 13.3333 8.88899 13.3333H3.33333C2.22876 13.3333 1.33333 12.4379 1.33333 11.3333C1.33333 10.2288 2.22876 9.33333 3.33333 9.33333H8.88899ZM10.6663 3.33333C11.7709 3.33333 12.6663 4.22876 12.6663 5.33333C12.6663 6.4379 11.7709 7.33333 10.6663 7.33333H5.33333C4.22876 7.33333 3.33333 6.4379 3.33333 5.33333C3.33333 4.22876 4.22876 3.33333 5.33333 3.33333H10.6663Z" fill="#777677"/>
</svg>
