<svg width="16" height="16" viewBox="0 0 16 16" fill="none" xmlns="http://www.w3.org/2000/svg">
<path fill-rule="evenodd" clip-rule="evenodd" d="M8.05052 8.48633C10.2402 8.48642 11.1209 10.5375 11.279 10.96C11.2971 11.0085 11.2931 11.0612 11.2663 11.1055C11.0768 11.4184 10.1857 12.6669 8.05052 12.667C5.91565 12.6668 5.02527 11.4184 4.83568 11.1055C4.80897 11.0612 4.80496 11.0084 4.82298 10.96C4.98134 10.5369 5.86154 8.48662 8.05052 8.48633ZM3.87474 8.15527C4.47463 8.15531 4.94889 8.31818 5.3181 8.54102C5.45332 8.62265 5.45748 8.81054 5.34544 8.92188C4.59993 9.6628 4.24725 10.573 4.12376 10.9551C4.09018 11.0584 3.99803 11.1365 3.88939 11.1377C3.88467 11.1377 3.87948 11.1377 3.87474 11.1377C2.21414 11.1376 1.51125 10.1441 1.35228 9.87695C1.32769 9.83558 1.32611 9.78679 1.34642 9.74317C1.49281 9.43006 2.19185 8.15536 3.87474 8.15527ZM12.1257 8.15527C13.8084 8.15557 14.5077 9.43013 14.654 9.74317C14.6742 9.78669 14.6726 9.83566 14.6482 9.87695C14.4892 10.1441 13.786 11.1375 12.1257 11.1377C12.121 11.1377 12.1158 11.1377 12.1111 11.1377C12.0022 11.1367 11.9093 11.0586 11.8757 10.9551C11.7522 10.5729 11.3997 9.66284 10.654 8.92188C10.5421 8.81059 10.5464 8.6227 10.6814 8.54102C11.0506 8.31811 11.5257 8.15531 12.1257 8.15527ZM8.05052 4C8.94935 4 9.67845 4.73085 9.67845 5.63184C9.6782 6.53275 8.9492 7.6709 8.05052 7.6709C7.15207 7.67048 6.42284 6.53258 6.42259 5.63184C6.42259 4.73102 7.15192 4.00027 8.05052 4ZM3.87474 4.50977C4.581 4.50988 5.15386 5.10313 5.15404 5.83496C5.15404 6.56694 4.58111 7.49202 3.87474 7.49219C3.16838 7.49199 2.59544 6.56693 2.59544 5.83496C2.59562 5.10314 3.16849 4.50989 3.87474 4.50977ZM12.1257 4.50977C12.8318 4.51012 13.4048 5.10329 13.405 5.83496C13.405 6.56679 12.8319 7.49164 12.1257 7.49219C11.4193 7.49202 10.8464 6.56694 10.8464 5.83496C10.8466 5.10313 11.4194 4.50988 12.1257 4.50977Z" fill="#777677"/>
</svg>
