<svg width="16" height="16" viewBox="0 0 16 16" fill="none" xmlns="http://www.w3.org/2000/svg">
<path d="M9.50032 12.5C9.77632 12.5002 10.0003 12.724 10.0003 13C10.0003 13.5522 9.55246 13.9998 9.00032 14H7.00032C6.44804 14 6.00032 13.5523 6.00032 13C6.00032 12.7239 6.22418 12.5 6.50032 12.5H9.50032ZM8.00032 2C10.2093 2.00017 12.0003 3.79097 12.0003 6C12.0003 7.37691 11.3037 8.59015 10.2445 9.30957C10.0969 9.40978 10.0004 9.57263 10.0003 9.75098V10.5C10.0003 10.7761 9.77646 11 9.50032 11H6.50032C6.22418 11 6.00032 10.7761 6.00032 10.5V9.75195C6.00022 9.57361 5.90373 9.41075 5.75618 9.31055C4.69663 8.59114 4.00032 7.37726 4.00032 6C4.00032 3.79086 5.79118 2 8.00032 2Z" fill="#777677"/>
</svg>
