<svg width="16" height="16" viewBox="0 0 16 16" fill="none" xmlns="http://www.w3.org/2000/svg">
<path fill-rule="evenodd" clip-rule="evenodd" d="M11.6467 7.64645C11.842 7.45118 12.1585 7.45118 12.3537 7.64645L14.3537 9.64645C14.5246 9.81731 14.5463 10.0813 14.4182 10.2754L14.3537 10.3535L12.3537 12.3535C12.1585 12.5487 11.842 12.5487 11.6467 12.3535C11.4514 12.1582 11.4514 11.8417 11.6467 11.6464L12.7932 10.5H6.6672C6.39106 10.5 6.1672 10.2761 6.1672 9.99996C6.1672 9.72382 6.39106 9.49996 6.6672 9.49996H12.7932L11.6467 8.35348C11.4514 8.15822 11.4514 7.84171 11.6467 7.64645ZM3.64669 3.64645C3.84195 3.45118 4.15846 3.45118 4.35372 3.64645C4.54898 3.84171 4.54898 4.15822 4.35372 4.35348L3.20724 5.49996H9.33322C9.60936 5.49996 9.83321 5.72382 9.83321 5.99996C9.83321 6.2761 9.60936 6.49996 9.33322 6.49996H3.20724L4.35372 7.64645C4.54898 7.84171 4.54898 8.15822 4.35372 8.35348C4.15846 8.54874 3.84195 8.54874 3.64669 8.35348L1.64669 6.35348L1.58224 6.27535C1.45407 6.08127 1.47583 5.81731 1.64669 5.64645L3.64669 3.64645Z" fill="#777677"/>
</svg>
