<svg width="16" height="16" viewBox="0 0 16 16" fill="none" xmlns="http://www.w3.org/2000/svg">
<path fill-rule="evenodd" clip-rule="evenodd" d="M10.3338 8.53288C13.2599 8.53325 14.4402 11.203 14.6561 11.7643C14.6816 11.8307 14.6751 11.9022 14.6375 11.9626C14.3782 12.3782 13.1844 13.9994 10.3338 13.9997C7.4829 13.9997 6.28852 12.3783 6.02914 11.9626C5.99152 11.9022 5.98514 11.8308 6.01059 11.7643C6.22663 11.2026 7.4076 8.53288 10.3338 8.53288ZM4.73813 8.10026C5.53668 8.10026 6.16953 8.30973 6.66293 8.59831C6.84829 8.70674 6.85385 8.96309 6.70004 9.11296C5.71021 10.0775 5.23957 11.2573 5.07309 11.7575C5.02708 11.8954 4.90302 11.9994 4.75766 12.0007C4.75118 12.0007 4.74463 12.0007 4.73813 12.0007C2.52403 12.0005 1.58175 10.7136 1.36313 10.3571C1.32852 10.3006 1.32575 10.2322 1.35434 10.1725C1.5552 9.75488 2.49241 8.10042 4.73813 8.10026ZM10.3338 2.66667C11.5377 2.6669 12.5145 3.62239 12.5145 4.80046C12.5142 5.97845 11.5376 7.46611 10.3338 7.46647C9.12989 7.46647 8.15342 5.97859 8.15317 4.80046C8.15317 3.62225 9.12973 2.66667 10.3338 2.66667ZM4.73813 3.33366C5.68452 3.33366 6.45199 4.10976 6.45199 5.06706C6.45179 6.02429 5.6844 7.23405 4.73813 7.23405C3.79203 7.23374 3.02447 6.02417 3.02426 5.06706C3.02426 4.10989 3.7919 3.33386 4.73813 3.33366Z" fill="#777677"/>
</svg>
