<svg width="16" height="16" viewBox="0 0 16 16" fill="none" xmlns="http://www.w3.org/2000/svg">
<path d="M6.66632 8.66634C7.0344 8.66634 7.33314 8.96529 7.33331 9.33333V13.9993C7.33331 14.3675 7.03451 14.6663 6.66632 14.6663H2.00031L1.86554 14.6527C1.56184 14.5904 1.33331 14.3215 1.33331 13.9993V9.33333C1.33347 9.01135 1.56191 8.7422 1.86554 8.68001L2.00031 8.66634H6.66632ZM13.9993 8.66634C14.3674 8.66634 14.6661 8.96529 14.6663 9.33333V13.9993C14.6663 14.3675 14.3675 14.6663 13.9993 14.6663H9.33331L9.19855 14.6527C8.895 14.5903 8.66632 14.3213 8.66632 13.9993V9.33333C8.66647 9.01144 8.89504 8.74229 9.19855 8.68001L9.33331 8.66634H13.9993ZM2.33331 13.6663H6.33331V9.66634H2.33331V13.6663ZM9.66632 13.6663H13.6663V9.66634H9.66632V13.6663ZM6.66632 1.33333C7.03451 1.33333 7.33331 1.63214 7.33331 2.00033V6.66634C7.33331 7.03453 7.03451 7.33333 6.66632 7.33333H2.00031L1.86554 7.31966C1.5618 7.25746 1.33331 6.98847 1.33331 6.66634V2.00033C1.33331 1.6782 1.5618 1.40921 1.86554 1.34701L2.00031 1.33333H6.66632ZM11.6663 1.43392C11.9425 1.43392 12.1663 1.65778 12.1663 1.93392V3.83333H14.0667C14.3426 3.83347 14.5665 4.05743 14.5667 4.33333C14.5665 4.60924 14.3426 4.83319 14.0667 4.83333H12.1663V6.73372C12.166 7.0096 11.9423 7.23372 11.6663 7.23372C11.3905 7.23355 11.1666 7.00949 11.1663 6.73372V4.83333H9.26691C8.99087 4.83333 8.76708 4.60933 8.76691 4.33333C8.76708 4.05734 8.99087 3.83333 9.26691 3.83333H11.1663V1.93392C11.1663 1.65789 11.3903 1.4341 11.6663 1.43392ZM2.33331 6.33333H6.33331V2.33333H2.33331V6.33333Z" fill="#777677"/>
</svg>
